<?xml version="1.0" encoding="UTF-8"?>
<svg width="70px" height="70px" viewBox="0 0 70 70" version="1.1" xmlns="http://www.w3.org/2000/svg" xmlns:xlink="http://www.w3.org/1999/xlink">
    <!-- Generator: Sketch 49 (51002) - http://www.bohemiancoding.com/sketch -->
    <title>grid</title>
    <desc>Created with Sketch.</desc>
    <defs>
        <rect id="path-1" x="0" y="0" width="70" height="70"></rect>
    </defs>
    <g id="Page-1" stroke="none" stroke-width="1" fill="none" fill-rule="evenodd">
        <g id="Group_13-252f32cfca37d19d64b35a55d93c308c0f90e8fe4052471582a15c9e676390e8">
            <g>
                <mask id="mask-2" fill="white">
                    <use xlink:href="#path-1"></use>
                </mask>
                <g id="path-1"></g>
                <g id="Group" mask="url(#mask-2)">
                    <g transform="translate(-13.500000, -28.500000)">
                        <g id="Group-12" transform="translate(0.000000, 28.000000)">
                            <g id="Group-9" transform="translate(7.000000, 21.000000) scale(-1, 1) rotate(-180.000000) translate(-7.000000, -21.000000) " fill="#FF0000" fill-rule="nonzero">
                                <g id="Grid-Small">
                                    <g id="Group-2">
                                        <path d="M5.6,4.66666667 L7.46666667,4.66666667 L7.46666667,2.8 L5.6,2.8 L5.6,4.66666667 Z M4.66666667,4.66666667 L4.66666667,2.8 L2.8,2.8 L2.8,4.66666667 L4.66666667,4.66666667 Z M5.6,1.86666667 L7.46666667,1.86666667 L7.46666667,0 L8.4,0 L8.4,1.86666667 L10.2666667,1.86666667 L10.2666667,0 L11.2,0 L11.2,1.86666667 L13.0666667,1.86666667 L13.0666667,2.8 L11.2,2.8 L11.2,4.66666667 L13.0666667,4.66666667 L13.0666667,5.6 L11.2,5.6 L11.2,7.46666667 L13.0666667,7.46666667 L13.0666667,8.4 L11.2,8.4 L11.2,10.2666667 L13.0666667,10.2666667 L13.0666667,11.2 L11.2,11.2 L11.2,13.0666667 L10.2666667,13.0666667 L10.2666667,11.2 L8.4,11.2 L8.4,13.0666667 L7.46666667,13.0666667 L7.46666667,11.2 L5.6,11.2 L5.6,13.0666667 L4.66666667,13.0666667 L4.66666667,11.2 L2.8,11.2 L2.8,13.0666667 L1.86666667,13.0666667 L1.86666667,11.2 L0,11.2 L0,10.2666667 L1.86666667,10.2666667 L1.86666667,8.4 L0,8.4 L0,7.46666667 L1.86666667,7.46666667 L1.86666667,5.6 L0,5.6 L0,4.66666667 L1.86666667,4.66666667 L1.86666667,2.8 L0,2.8 L0,1.86666667 L1.86666667,1.86666667 L1.86666667,0 L2.8,0 L2.8,1.86666667 L4.66666667,1.86666667 L4.66666667,0 L5.6,0 L5.6,1.86666667 Z M5.6,5.6 L5.6,7.46666667 L7.46666667,7.46666667 L7.46666667,5.6 L5.6,5.6 Z M4.66666667,5.6 L2.8,5.6 L2.8,7.46666667 L4.66666667,7.46666667 L4.66666667,5.6 Z M5.6,8.4 L5.6,10.2666667 L7.46666667,10.2666667 L7.46666667,8.4 L5.6,8.4 Z M4.66666667,8.4 L2.8,8.4 L2.8,10.2666667 L4.66666667,10.2666667 L4.66666667,8.4 Z M8.4,4.66666667 L10.2666667,4.66666667 L10.2666667,2.8 L8.4,2.8 L8.4,4.66666667 Z M8.4,5.6 L8.4,7.46666667 L10.2666667,7.46666667 L10.2666667,5.6 L8.4,5.6 Z M8.4,8.4 L8.4,10.2666667 L10.2666667,10.2666667 L10.2666667,8.4 L8.4,8.4 Z" id="Combined-Shape" fill-opacity="0.2"></path>
                                        <path d="M13.0666667,0 L14,0 L14,13.0666667 L13.0666667,13.0666667 L13.0666667,0 Z M0,13.0666667 L14,13.0666667 L14,14 L0,14 L0,13.0666667 Z" id="Combined-Shape" fill-opacity="0.6"></path>
                                    </g>
                                </g>
                                <g id="Grid-Small" transform="translate(0.000000, 14.000000)">
                                    <g id="Group-2">
                                        <path d="M5.6,4.66666667 L7.46666667,4.66666667 L7.46666667,2.8 L5.6,2.8 L5.6,4.66666667 Z M4.66666667,4.66666667 L4.66666667,2.8 L2.8,2.8 L2.8,4.66666667 L4.66666667,4.66666667 Z M5.6,1.86666667 L7.46666667,1.86666667 L7.46666667,0 L8.4,0 L8.4,1.86666667 L10.2666667,1.86666667 L10.2666667,0 L11.2,0 L11.2,1.86666667 L13.0666667,1.86666667 L13.0666667,2.8 L11.2,2.8 L11.2,4.66666667 L13.0666667,4.66666667 L13.0666667,5.6 L11.2,5.6 L11.2,7.46666667 L13.0666667,7.46666667 L13.0666667,8.4 L11.2,8.4 L11.2,10.2666667 L13.0666667,10.2666667 L13.0666667,11.2 L11.2,11.2 L11.2,13.0666667 L10.2666667,13.0666667 L10.2666667,11.2 L8.4,11.2 L8.4,13.0666667 L7.46666667,13.0666667 L7.46666667,11.2 L5.6,11.2 L5.6,13.0666667 L4.66666667,13.0666667 L4.66666667,11.2 L2.8,11.2 L2.8,13.0666667 L1.86666667,13.0666667 L1.86666667,11.2 L0,11.2 L0,10.2666667 L1.86666667,10.2666667 L1.86666667,8.4 L0,8.4 L0,7.46666667 L1.86666667,7.46666667 L1.86666667,5.6 L0,5.6 L0,4.66666667 L1.86666667,4.66666667 L1.86666667,2.8 L0,2.8 L0,1.86666667 L1.86666667,1.86666667 L1.86666667,0 L2.8,0 L2.8,1.86666667 L4.66666667,1.86666667 L4.66666667,0 L5.6,0 L5.6,1.86666667 Z M5.6,5.6 L5.6,7.46666667 L7.46666667,7.46666667 L7.46666667,5.6 L5.6,5.6 Z M4.66666667,5.6 L2.8,5.6 L2.8,7.46666667 L4.66666667,7.46666667 L4.66666667,5.6 Z M5.6,8.4 L5.6,10.2666667 L7.46666667,10.2666667 L7.46666667,8.4 L5.6,8.4 Z M4.66666667,8.4 L2.8,8.4 L2.8,10.2666667 L4.66666667,10.2666667 L4.66666667,8.4 Z M8.4,4.66666667 L10.2666667,4.66666667 L10.2666667,2.8 L8.4,2.8 L8.4,4.66666667 Z M8.4,5.6 L8.4,7.46666667 L10.2666667,7.46666667 L10.2666667,5.6 L8.4,5.6 Z M8.4,8.4 L8.4,10.2666667 L10.2666667,10.2666667 L10.2666667,8.4 L8.4,8.4 Z" id="Combined-Shape" fill-opacity="0.2"></path>
                                        <path d="M13.0666667,0 L14,0 L14,13.0666667 L13.0666667,13.0666667 L13.0666667,0 Z M0,13.0666667 L14,13.0666667 L14,14 L0,14 L0,13.0666667 Z" id="Combined-Shape" fill-opacity="0.6"></path>
                                    </g>
                                </g>
                                <g id="Grid-Small" transform="translate(0.000000, 28.000000)">
                                    <g id="Group-2">
                                        <path d="M5.6,4.66666667 L7.46666667,4.66666667 L7.46666667,2.8 L5.6,2.8 L5.6,4.66666667 Z M4.66666667,4.66666667 L4.66666667,2.8 L2.8,2.8 L2.8,4.66666667 L4.66666667,4.66666667 Z M5.6,1.86666667 L7.46666667,1.86666667 L7.46666667,0 L8.4,0 L8.4,1.86666667 L10.2666667,1.86666667 L10.2666667,0 L11.2,0 L11.2,1.86666667 L13.0666667,1.86666667 L13.0666667,2.8 L11.2,2.8 L11.2,4.66666667 L13.0666667,4.66666667 L13.0666667,5.6 L11.2,5.6 L11.2,7.46666667 L13.0666667,7.46666667 L13.0666667,8.4 L11.2,8.4 L11.2,10.2666667 L13.0666667,10.2666667 L13.0666667,11.2 L11.2,11.2 L11.2,13.0666667 L10.2666667,13.0666667 L10.2666667,11.2 L8.4,11.2 L8.4,13.0666667 L7.46666667,13.0666667 L7.46666667,11.2 L5.6,11.2 L5.6,13.0666667 L4.66666667,13.0666667 L4.66666667,11.2 L2.8,11.2 L2.8,13.0666667 L1.86666667,13.0666667 L1.86666667,11.2 L0,11.2 L0,10.2666667 L1.86666667,10.2666667 L1.86666667,8.4 L0,8.4 L0,7.46666667 L1.86666667,7.46666667 L1.86666667,5.6 L0,5.6 L0,4.66666667 L1.86666667,4.66666667 L1.86666667,2.8 L0,2.8 L0,1.86666667 L1.86666667,1.86666667 L1.86666667,0 L2.8,0 L2.8,1.86666667 L4.66666667,1.86666667 L4.66666667,0 L5.6,0 L5.6,1.86666667 Z M5.6,5.6 L5.6,7.46666667 L7.46666667,7.46666667 L7.46666667,5.6 L5.6,5.6 Z M4.66666667,5.6 L2.8,5.6 L2.8,7.46666667 L4.66666667,7.46666667 L4.66666667,5.6 Z M5.6,8.4 L5.6,10.2666667 L7.46666667,10.2666667 L7.46666667,8.4 L5.6,8.4 Z M4.66666667,8.4 L2.8,8.4 L2.8,10.2666667 L4.66666667,10.2666667 L4.66666667,8.4 Z M8.4,4.66666667 L10.2666667,4.66666667 L10.2666667,2.8 L8.4,2.8 L8.4,4.66666667 Z M8.4,5.6 L8.4,7.46666667 L10.2666667,7.46666667 L10.2666667,5.6 L8.4,5.6 Z M8.4,8.4 L8.4,10.2666667 L10.2666667,10.2666667 L10.2666667,8.4 L8.4,8.4 Z" id="Combined-Shape" fill-opacity="0.2"></path>
                                        <path d="M13.0666667,0 L14,0 L14,13.0666667 L13.0666667,13.0666667 L13.0666667,0 Z M0,13.0666667 L14,13.0666667 L14,14 L0,14 L0,13.0666667 Z" id="Combined-Shape" fill-opacity="0.6"></path>
                                    </g>
                                </g>
                            </g>
                        </g>
                        <g id="Group-12-Copy" transform="translate(0.000000, 28.000000)"></g>
                        <g id="Group-12-Copy-2" transform="translate(13.000000, 0.000000)">
                            <g id="Group-9" transform="translate(36.000000, 49.000000) scale(-1, 1) rotate(-180.000000) translate(-36.000000, -49.000000) translate(1.000000, 28.000000)" fill="#FF0000" fill-rule="nonzero">
                                <g id="Grid-Small">
                                    <g id="Group-2">
                                        <path d="M5.6,4.66666667 L7.46666667,4.66666667 L7.46666667,2.8 L5.6,2.8 L5.6,4.66666667 Z M4.66666667,4.66666667 L4.66666667,2.8 L2.8,2.8 L2.8,4.66666667 L4.66666667,4.66666667 Z M5.6,1.86666667 L7.46666667,1.86666667 L7.46666667,0 L8.4,0 L8.4,1.86666667 L10.2666667,1.86666667 L10.2666667,0 L11.2,0 L11.2,1.86666667 L13.0666667,1.86666667 L13.0666667,2.8 L11.2,2.8 L11.2,4.66666667 L13.0666667,4.66666667 L13.0666667,5.6 L11.2,5.6 L11.2,7.46666667 L13.0666667,7.46666667 L13.0666667,8.4 L11.2,8.4 L11.2,10.2666667 L13.0666667,10.2666667 L13.0666667,11.2 L11.2,11.2 L11.2,13.0666667 L10.2666667,13.0666667 L10.2666667,11.2 L8.4,11.2 L8.4,13.0666667 L7.46666667,13.0666667 L7.46666667,11.2 L5.6,11.2 L5.6,13.0666667 L4.66666667,13.0666667 L4.66666667,11.2 L2.8,11.2 L2.8,13.0666667 L1.86666667,13.0666667 L1.86666667,11.2 L0,11.2 L0,10.2666667 L1.86666667,10.2666667 L1.86666667,8.4 L0,8.4 L0,7.46666667 L1.86666667,7.46666667 L1.86666667,5.6 L0,5.6 L0,4.66666667 L1.86666667,4.66666667 L1.86666667,2.8 L0,2.8 L0,1.86666667 L1.86666667,1.86666667 L1.86666667,0 L2.8,0 L2.8,1.86666667 L4.66666667,1.86666667 L4.66666667,0 L5.6,0 L5.6,1.86666667 Z M5.6,5.6 L5.6,7.46666667 L7.46666667,7.46666667 L7.46666667,5.6 L5.6,5.6 Z M4.66666667,5.6 L2.8,5.6 L2.8,7.46666667 L4.66666667,7.46666667 L4.66666667,5.6 Z M5.6,8.4 L5.6,10.2666667 L7.46666667,10.2666667 L7.46666667,8.4 L5.6,8.4 Z M4.66666667,8.4 L2.8,8.4 L2.8,10.2666667 L4.66666667,10.2666667 L4.66666667,8.4 Z M8.4,4.66666667 L10.2666667,4.66666667 L10.2666667,2.8 L8.4,2.8 L8.4,4.66666667 Z M8.4,5.6 L8.4,7.46666667 L10.2666667,7.46666667 L10.2666667,5.6 L8.4,5.6 Z M8.4,8.4 L8.4,10.2666667 L10.2666667,10.2666667 L10.2666667,8.4 L8.4,8.4 Z" id="Combined-Shape" fill-opacity="0.2"></path>
                                        <path d="M13.0666667,0 L14,0 L14,13.0666667 L13.0666667,13.0666667 L13.0666667,0 Z M0,13.0666667 L14,13.0666667 L14,14 L0,14 L0,13.0666667 Z" id="Combined-Shape" fill-opacity="0.6"></path>
                                    </g>
                                </g>
                                <g id="Grid-Small" transform="translate(0.000000, 14.000000)">
                                    <g id="Group-2">
                                        <path d="M5.6,4.66666667 L7.46666667,4.66666667 L7.46666667,2.8 L5.6,2.8 L5.6,4.66666667 Z M4.66666667,4.66666667 L4.66666667,2.8 L2.8,2.8 L2.8,4.66666667 L4.66666667,4.66666667 Z M5.6,1.86666667 L7.46666667,1.86666667 L7.46666667,0 L8.4,0 L8.4,1.86666667 L10.2666667,1.86666667 L10.2666667,0 L11.2,0 L11.2,1.86666667 L13.0666667,1.86666667 L13.0666667,2.8 L11.2,2.8 L11.2,4.66666667 L13.0666667,4.66666667 L13.0666667,5.6 L11.2,5.6 L11.2,7.46666667 L13.0666667,7.46666667 L13.0666667,8.4 L11.2,8.4 L11.2,10.2666667 L13.0666667,10.2666667 L13.0666667,11.2 L11.2,11.2 L11.2,13.0666667 L10.2666667,13.0666667 L10.2666667,11.2 L8.4,11.2 L8.4,13.0666667 L7.46666667,13.0666667 L7.46666667,11.2 L5.6,11.2 L5.6,13.0666667 L4.66666667,13.0666667 L4.66666667,11.2 L2.8,11.2 L2.8,13.0666667 L1.86666667,13.0666667 L1.86666667,11.2 L0,11.2 L0,10.2666667 L1.86666667,10.2666667 L1.86666667,8.4 L0,8.4 L0,7.46666667 L1.86666667,7.46666667 L1.86666667,5.6 L0,5.6 L0,4.66666667 L1.86666667,4.66666667 L1.86666667,2.8 L0,2.8 L0,1.86666667 L1.86666667,1.86666667 L1.86666667,0 L2.8,0 L2.8,1.86666667 L4.66666667,1.86666667 L4.66666667,0 L5.6,0 L5.6,1.86666667 Z M5.6,5.6 L5.6,7.46666667 L7.46666667,7.46666667 L7.46666667,5.6 L5.6,5.6 Z M4.66666667,5.6 L2.8,5.6 L2.8,7.46666667 L4.66666667,7.46666667 L4.66666667,5.6 Z M5.6,8.4 L5.6,10.2666667 L7.46666667,10.2666667 L7.46666667,8.4 L5.6,8.4 Z M4.66666667,8.4 L2.8,8.4 L2.8,10.2666667 L4.66666667,10.2666667 L4.66666667,8.4 Z M8.4,4.66666667 L10.2666667,4.66666667 L10.2666667,2.8 L8.4,2.8 L8.4,4.66666667 Z M8.4,5.6 L8.4,7.46666667 L10.2666667,7.46666667 L10.2666667,5.6 L8.4,5.6 Z M8.4,8.4 L8.4,10.2666667 L10.2666667,10.2666667 L10.2666667,8.4 L8.4,8.4 Z" id="Combined-Shape" fill-opacity="0.2"></path>
                                        <path d="M13.0666667,0 L14,0 L14,13.0666667 L13.0666667,13.0666667 L13.0666667,0 Z M0,13.0666667 L14,13.0666667 L14,14 L0,14 L0,13.0666667 Z" id="Combined-Shape" fill-opacity="0.6"></path>
                                    </g>
                                </g>
                                <g id="Grid-Small" transform="translate(14.000000, 0.000000)">
                                    <g id="Group-2">
                                        <path d="M5.6,4.66666667 L7.46666667,4.66666667 L7.46666667,2.8 L5.6,2.8 L5.6,4.66666667 Z M4.66666667,4.66666667 L4.66666667,2.8 L2.8,2.8 L2.8,4.66666667 L4.66666667,4.66666667 Z M5.6,1.86666667 L7.46666667,1.86666667 L7.46666667,0 L8.4,0 L8.4,1.86666667 L10.2666667,1.86666667 L10.2666667,0 L11.2,0 L11.2,1.86666667 L13.0666667,1.86666667 L13.0666667,2.8 L11.2,2.8 L11.2,4.66666667 L13.0666667,4.66666667 L13.0666667,5.6 L11.2,5.6 L11.2,7.46666667 L13.0666667,7.46666667 L13.0666667,8.4 L11.2,8.4 L11.2,10.2666667 L13.0666667,10.2666667 L13.0666667,11.2 L11.2,11.2 L11.2,13.0666667 L10.2666667,13.0666667 L10.2666667,11.2 L8.4,11.2 L8.4,13.0666667 L7.46666667,13.0666667 L7.46666667,11.2 L5.6,11.2 L5.6,13.0666667 L4.66666667,13.0666667 L4.66666667,11.2 L2.8,11.2 L2.8,13.0666667 L1.86666667,13.0666667 L1.86666667,11.2 L0,11.2 L0,10.2666667 L1.86666667,10.2666667 L1.86666667,8.4 L0,8.4 L0,7.46666667 L1.86666667,7.46666667 L1.86666667,5.6 L0,5.6 L0,4.66666667 L1.86666667,4.66666667 L1.86666667,2.8 L0,2.8 L0,1.86666667 L1.86666667,1.86666667 L1.86666667,0 L2.8,0 L2.8,1.86666667 L4.66666667,1.86666667 L4.66666667,0 L5.6,0 L5.6,1.86666667 Z M5.6,5.6 L5.6,7.46666667 L7.46666667,7.46666667 L7.46666667,5.6 L5.6,5.6 Z M4.66666667,5.6 L2.8,5.6 L2.8,7.46666667 L4.66666667,7.46666667 L4.66666667,5.6 Z M5.6,8.4 L5.6,10.2666667 L7.46666667,10.2666667 L7.46666667,8.4 L5.6,8.4 Z M4.66666667,8.4 L2.8,8.4 L2.8,10.2666667 L4.66666667,10.2666667 L4.66666667,8.4 Z M8.4,4.66666667 L10.2666667,4.66666667 L10.2666667,2.8 L8.4,2.8 L8.4,4.66666667 Z M8.4,5.6 L8.4,7.46666667 L10.2666667,7.46666667 L10.2666667,5.6 L8.4,5.6 Z M8.4,8.4 L8.4,10.2666667 L10.2666667,10.2666667 L10.2666667,8.4 L8.4,8.4 Z" id="Combined-Shape" fill-opacity="0.2"></path>
                                        <path d="M13.0666667,0 L14,0 L14,13.0666667 L13.0666667,13.0666667 L13.0666667,0 Z M0,13.0666667 L14,13.0666667 L14,14 L0,14 L0,13.0666667 Z" id="Combined-Shape" fill-opacity="0.6"></path>
                                    </g>
                                </g>
                                <g id="Grid-Small" transform="translate(14.000000, 14.000000)">
                                    <g id="Group-2">
                                        <path d="M5.6,4.66666667 L7.46666667,4.66666667 L7.46666667,2.8 L5.6,2.8 L5.6,4.66666667 Z M4.66666667,4.66666667 L4.66666667,2.8 L2.8,2.8 L2.8,4.66666667 L4.66666667,4.66666667 Z M5.6,1.86666667 L7.46666667,1.86666667 L7.46666667,0 L8.4,0 L8.4,1.86666667 L10.2666667,1.86666667 L10.2666667,0 L11.2,0 L11.2,1.86666667 L13.0666667,1.86666667 L13.0666667,2.8 L11.2,2.8 L11.2,4.66666667 L13.0666667,4.66666667 L13.0666667,5.6 L11.2,5.6 L11.2,7.46666667 L13.0666667,7.46666667 L13.0666667,8.4 L11.2,8.4 L11.2,10.2666667 L13.0666667,10.2666667 L13.0666667,11.2 L11.2,11.2 L11.2,13.0666667 L10.2666667,13.0666667 L10.2666667,11.2 L8.4,11.2 L8.4,13.0666667 L7.46666667,13.0666667 L7.46666667,11.2 L5.6,11.2 L5.6,13.0666667 L4.66666667,13.0666667 L4.66666667,11.2 L2.8,11.2 L2.8,13.0666667 L1.86666667,13.0666667 L1.86666667,11.2 L0,11.2 L0,10.2666667 L1.86666667,10.2666667 L1.86666667,8.4 L0,8.4 L0,7.46666667 L1.86666667,7.46666667 L1.86666667,5.6 L0,5.6 L0,4.66666667 L1.86666667,4.66666667 L1.86666667,2.8 L0,2.8 L0,1.86666667 L1.86666667,1.86666667 L1.86666667,0 L2.8,0 L2.8,1.86666667 L4.66666667,1.86666667 L4.66666667,0 L5.6,0 L5.6,1.86666667 Z M5.6,5.6 L5.6,7.46666667 L7.46666667,7.46666667 L7.46666667,5.6 L5.6,5.6 Z M4.66666667,5.6 L2.8,5.6 L2.8,7.46666667 L4.66666667,7.46666667 L4.66666667,5.6 Z M5.6,8.4 L5.6,10.2666667 L7.46666667,10.2666667 L7.46666667,8.4 L5.6,8.4 Z M4.66666667,8.4 L2.8,8.4 L2.8,10.2666667 L4.66666667,10.2666667 L4.66666667,8.4 Z M8.4,4.66666667 L10.2666667,4.66666667 L10.2666667,2.8 L8.4,2.8 L8.4,4.66666667 Z M8.4,5.6 L8.4,7.46666667 L10.2666667,7.46666667 L10.2666667,5.6 L8.4,5.6 Z M8.4,8.4 L8.4,10.2666667 L10.2666667,10.2666667 L10.2666667,8.4 L8.4,8.4 Z" id="Combined-Shape" fill-opacity="0.2"></path>
                                        <path d="M13.0666667,0 L14,0 L14,13.0666667 L13.0666667,13.0666667 L13.0666667,0 Z M0,13.0666667 L14,13.0666667 L14,14 L0,14 L0,13.0666667 Z" id="Combined-Shape" fill-opacity="0.6"></path>
                                    </g>
                                </g>
                                <g id="Grid-Small" transform="translate(28.000000, 0.000000)">
                                    <g id="Group-2">
                                        <path d="M5.6,4.66666667 L7.46666667,4.66666667 L7.46666667,2.8 L5.6,2.8 L5.6,4.66666667 Z M4.66666667,4.66666667 L4.66666667,2.8 L2.8,2.8 L2.8,4.66666667 L4.66666667,4.66666667 Z M5.6,1.86666667 L7.46666667,1.86666667 L7.46666667,0 L8.4,0 L8.4,1.86666667 L10.2666667,1.86666667 L10.2666667,0 L11.2,0 L11.2,1.86666667 L13.0666667,1.86666667 L13.0666667,2.8 L11.2,2.8 L11.2,4.66666667 L13.0666667,4.66666667 L13.0666667,5.6 L11.2,5.6 L11.2,7.46666667 L13.0666667,7.46666667 L13.0666667,8.4 L11.2,8.4 L11.2,10.2666667 L13.0666667,10.2666667 L13.0666667,11.2 L11.2,11.2 L11.2,13.0666667 L10.2666667,13.0666667 L10.2666667,11.2 L8.4,11.2 L8.4,13.0666667 L7.46666667,13.0666667 L7.46666667,11.2 L5.6,11.2 L5.6,13.0666667 L4.66666667,13.0666667 L4.66666667,11.2 L2.8,11.2 L2.8,13.0666667 L1.86666667,13.0666667 L1.86666667,11.2 L0,11.2 L0,10.2666667 L1.86666667,10.2666667 L1.86666667,8.4 L0,8.4 L0,7.46666667 L1.86666667,7.46666667 L1.86666667,5.6 L0,5.6 L0,4.66666667 L1.86666667,4.66666667 L1.86666667,2.8 L0,2.8 L0,1.86666667 L1.86666667,1.86666667 L1.86666667,0 L2.8,0 L2.8,1.86666667 L4.66666667,1.86666667 L4.66666667,0 L5.6,0 L5.6,1.86666667 Z M5.6,5.6 L5.6,7.46666667 L7.46666667,7.46666667 L7.46666667,5.6 L5.6,5.6 Z M4.66666667,5.6 L2.8,5.6 L2.8,7.46666667 L4.66666667,7.46666667 L4.66666667,5.6 Z M5.6,8.4 L5.6,10.2666667 L7.46666667,10.2666667 L7.46666667,8.4 L5.6,8.4 Z M4.66666667,8.4 L2.8,8.4 L2.8,10.2666667 L4.66666667,10.2666667 L4.66666667,8.4 Z M8.4,4.66666667 L10.2666667,4.66666667 L10.2666667,2.8 L8.4,2.8 L8.4,4.66666667 Z M8.4,5.6 L8.4,7.46666667 L10.2666667,7.46666667 L10.2666667,5.6 L8.4,5.6 Z M8.4,8.4 L8.4,10.2666667 L10.2666667,10.2666667 L10.2666667,8.4 L8.4,8.4 Z" id="Combined-Shape" fill-opacity="0.2"></path>
                                        <path d="M13.0666667,0 L14,0 L14,13.0666667 L13.0666667,13.0666667 L13.0666667,0 Z M0,13.0666667 L14,13.0666667 L14,14 L0,14 L0,13.0666667 Z" id="Combined-Shape" fill-opacity="0.6"></path>
                                    </g>
                                </g>
                                <g id="Grid-Small" transform="translate(28.000000, 14.000000)">
                                    <g id="Group-2">
                                        <path d="M5.6,4.66666667 L7.46666667,4.66666667 L7.46666667,2.8 L5.6,2.8 L5.6,4.66666667 Z M4.66666667,4.66666667 L4.66666667,2.8 L2.8,2.8 L2.8,4.66666667 L4.66666667,4.66666667 Z M5.6,1.86666667 L7.46666667,1.86666667 L7.46666667,0 L8.4,0 L8.4,1.86666667 L10.2666667,1.86666667 L10.2666667,0 L11.2,0 L11.2,1.86666667 L13.0666667,1.86666667 L13.0666667,2.8 L11.2,2.8 L11.2,4.66666667 L13.0666667,4.66666667 L13.0666667,5.6 L11.2,5.6 L11.2,7.46666667 L13.0666667,7.46666667 L13.0666667,8.4 L11.2,8.4 L11.2,10.2666667 L13.0666667,10.2666667 L13.0666667,11.2 L11.2,11.2 L11.2,13.0666667 L10.2666667,13.0666667 L10.2666667,11.2 L8.4,11.2 L8.4,13.0666667 L7.46666667,13.0666667 L7.46666667,11.2 L5.6,11.2 L5.6,13.0666667 L4.66666667,13.0666667 L4.66666667,11.2 L2.8,11.2 L2.8,13.0666667 L1.86666667,13.0666667 L1.86666667,11.2 L0,11.2 L0,10.2666667 L1.86666667,10.2666667 L1.86666667,8.4 L0,8.4 L0,7.46666667 L1.86666667,7.46666667 L1.86666667,5.6 L0,5.6 L0,4.66666667 L1.86666667,4.66666667 L1.86666667,2.8 L0,2.8 L0,1.86666667 L1.86666667,1.86666667 L1.86666667,0 L2.8,0 L2.8,1.86666667 L4.66666667,1.86666667 L4.66666667,0 L5.6,0 L5.6,1.86666667 Z M5.6,5.6 L5.6,7.46666667 L7.46666667,7.46666667 L7.46666667,5.6 L5.6,5.6 Z M4.66666667,5.6 L2.8,5.6 L2.8,7.46666667 L4.66666667,7.46666667 L4.66666667,5.6 Z M5.6,8.4 L5.6,10.2666667 L7.46666667,10.2666667 L7.46666667,8.4 L5.6,8.4 Z M4.66666667,8.4 L2.8,8.4 L2.8,10.2666667 L4.66666667,10.2666667 L4.66666667,8.4 Z M8.4,4.66666667 L10.2666667,4.66666667 L10.2666667,2.8 L8.4,2.8 L8.4,4.66666667 Z M8.4,5.6 L8.4,7.46666667 L10.2666667,7.46666667 L10.2666667,5.6 L8.4,5.6 Z M8.4,8.4 L8.4,10.2666667 L10.2666667,10.2666667 L10.2666667,8.4 L8.4,8.4 Z" id="Combined-Shape" fill-opacity="0.2"></path>
                                        <path d="M13.0666667,0 L14,0 L14,13.0666667 L13.0666667,13.0666667 L13.0666667,0 Z M0,13.0666667 L14,13.0666667 L14,14 L0,14 L0,13.0666667 Z" id="Combined-Shape" fill-opacity="0.6"></path>
                                    </g>
                                </g>
                                <g id="Grid-Small" transform="translate(42.000000, 0.000000)">
                                    <g id="Group-2">
                                        <path d="M5.6,4.66666667 L7.46666667,4.66666667 L7.46666667,2.8 L5.6,2.8 L5.6,4.66666667 Z M4.66666667,4.66666667 L4.66666667,2.8 L2.8,2.8 L2.8,4.66666667 L4.66666667,4.66666667 Z M5.6,1.86666667 L7.46666667,1.86666667 L7.46666667,0 L8.4,0 L8.4,1.86666667 L10.2666667,1.86666667 L10.2666667,0 L11.2,0 L11.2,1.86666667 L13.0666667,1.86666667 L13.0666667,2.8 L11.2,2.8 L11.2,4.66666667 L13.0666667,4.66666667 L13.0666667,5.6 L11.2,5.6 L11.2,7.46666667 L13.0666667,7.46666667 L13.0666667,8.4 L11.2,8.4 L11.2,10.2666667 L13.0666667,10.2666667 L13.0666667,11.2 L11.2,11.2 L11.2,13.0666667 L10.2666667,13.0666667 L10.2666667,11.2 L8.4,11.2 L8.4,13.0666667 L7.46666667,13.0666667 L7.46666667,11.2 L5.6,11.2 L5.6,13.0666667 L4.66666667,13.0666667 L4.66666667,11.2 L2.8,11.2 L2.8,13.0666667 L1.86666667,13.0666667 L1.86666667,11.2 L0,11.2 L0,10.2666667 L1.86666667,10.2666667 L1.86666667,8.4 L0,8.4 L0,7.46666667 L1.86666667,7.46666667 L1.86666667,5.6 L0,5.6 L0,4.66666667 L1.86666667,4.66666667 L1.86666667,2.8 L0,2.8 L0,1.86666667 L1.86666667,1.86666667 L1.86666667,0 L2.8,0 L2.8,1.86666667 L4.66666667,1.86666667 L4.66666667,0 L5.6,0 L5.6,1.86666667 Z M5.6,5.6 L5.6,7.46666667 L7.46666667,7.46666667 L7.46666667,5.6 L5.6,5.6 Z M4.66666667,5.6 L2.8,5.6 L2.8,7.46666667 L4.66666667,7.46666667 L4.66666667,5.6 Z M5.6,8.4 L5.6,10.2666667 L7.46666667,10.2666667 L7.46666667,8.4 L5.6,8.4 Z M4.66666667,8.4 L2.8,8.4 L2.8,10.2666667 L4.66666667,10.2666667 L4.66666667,8.4 Z M8.4,4.66666667 L10.2666667,4.66666667 L10.2666667,2.8 L8.4,2.8 L8.4,4.66666667 Z M8.4,5.6 L8.4,7.46666667 L10.2666667,7.46666667 L10.2666667,5.6 L8.4,5.6 Z M8.4,8.4 L8.4,10.2666667 L10.2666667,10.2666667 L10.2666667,8.4 L8.4,8.4 Z" id="Combined-Shape" fill-opacity="0.2"></path>
                                        <path d="M13.0666667,0 L14,0 L14,13.0666667 L13.0666667,13.0666667 L13.0666667,0 Z M0,13.0666667 L14,13.0666667 L14,14 L0,14 L0,13.0666667 Z" id="Combined-Shape" fill-opacity="0.6"></path>
                                    </g>
                                </g>
                                <g id="Grid-Small" transform="translate(42.000000, 14.000000)">
                                    <g id="Group-2">
                                        <path d="M5.6,4.66666667 L7.46666667,4.66666667 L7.46666667,2.8 L5.6,2.8 L5.6,4.66666667 Z M4.66666667,4.66666667 L4.66666667,2.8 L2.8,2.8 L2.8,4.66666667 L4.66666667,4.66666667 Z M5.6,1.86666667 L7.46666667,1.86666667 L7.46666667,0 L8.4,0 L8.4,1.86666667 L10.2666667,1.86666667 L10.2666667,0 L11.2,0 L11.2,1.86666667 L13.0666667,1.86666667 L13.0666667,2.8 L11.2,2.8 L11.2,4.66666667 L13.0666667,4.66666667 L13.0666667,5.6 L11.2,5.6 L11.2,7.46666667 L13.0666667,7.46666667 L13.0666667,8.4 L11.2,8.4 L11.2,10.2666667 L13.0666667,10.2666667 L13.0666667,11.2 L11.2,11.2 L11.2,13.0666667 L10.2666667,13.0666667 L10.2666667,11.2 L8.4,11.2 L8.4,13.0666667 L7.46666667,13.0666667 L7.46666667,11.2 L5.6,11.2 L5.6,13.0666667 L4.66666667,13.0666667 L4.66666667,11.2 L2.8,11.2 L2.8,13.0666667 L1.86666667,13.0666667 L1.86666667,11.2 L0,11.2 L0,10.2666667 L1.86666667,10.2666667 L1.86666667,8.4 L0,8.4 L0,7.46666667 L1.86666667,7.46666667 L1.86666667,5.6 L0,5.6 L0,4.66666667 L1.86666667,4.66666667 L1.86666667,2.8 L0,2.8 L0,1.86666667 L1.86666667,1.86666667 L1.86666667,0 L2.8,0 L2.8,1.86666667 L4.66666667,1.86666667 L4.66666667,0 L5.6,0 L5.6,1.86666667 Z M5.6,5.6 L5.6,7.46666667 L7.46666667,7.46666667 L7.46666667,5.6 L5.6,5.6 Z M4.66666667,5.6 L2.8,5.6 L2.8,7.46666667 L4.66666667,7.46666667 L4.66666667,5.6 Z M5.6,8.4 L5.6,10.2666667 L7.46666667,10.2666667 L7.46666667,8.4 L5.6,8.4 Z M4.66666667,8.4 L2.8,8.4 L2.8,10.2666667 L4.66666667,10.2666667 L4.66666667,8.4 Z M8.4,4.66666667 L10.2666667,4.66666667 L10.2666667,2.8 L8.4,2.8 L8.4,4.66666667 Z M8.4,5.6 L8.4,7.46666667 L10.2666667,7.46666667 L10.2666667,5.6 L8.4,5.6 Z M8.4,8.4 L8.4,10.2666667 L10.2666667,10.2666667 L10.2666667,8.4 L8.4,8.4 Z" id="Combined-Shape" fill-opacity="0.2"></path>
                                        <path d="M13.0666667,0 L14,0 L14,13.0666667 L13.0666667,13.0666667 L13.0666667,0 Z M0,13.0666667 L14,13.0666667 L14,14 L0,14 L0,13.0666667 Z" id="Combined-Shape" fill-opacity="0.6"></path>
                                    </g>
                                </g>
                                <g id="Grid-Small" transform="translate(56.000000, 0.000000)">
                                    <g id="Group-2">
                                        <path d="M5.6,4.66666667 L7.46666667,4.66666667 L7.46666667,2.8 L5.6,2.8 L5.6,4.66666667 Z M4.66666667,4.66666667 L4.66666667,2.8 L2.8,2.8 L2.8,4.66666667 L4.66666667,4.66666667 Z M5.6,1.86666667 L7.46666667,1.86666667 L7.46666667,0 L8.4,0 L8.4,1.86666667 L10.2666667,1.86666667 L10.2666667,0 L11.2,0 L11.2,1.86666667 L13.0666667,1.86666667 L13.0666667,2.8 L11.2,2.8 L11.2,4.66666667 L13.0666667,4.66666667 L13.0666667,5.6 L11.2,5.6 L11.2,7.46666667 L13.0666667,7.46666667 L13.0666667,8.4 L11.2,8.4 L11.2,10.2666667 L13.0666667,10.2666667 L13.0666667,11.2 L11.2,11.2 L11.2,13.0666667 L10.2666667,13.0666667 L10.2666667,11.2 L8.4,11.2 L8.4,13.0666667 L7.46666667,13.0666667 L7.46666667,11.2 L5.6,11.2 L5.6,13.0666667 L4.66666667,13.0666667 L4.66666667,11.2 L2.8,11.2 L2.8,13.0666667 L1.86666667,13.0666667 L1.86666667,11.2 L0,11.2 L0,10.2666667 L1.86666667,10.2666667 L1.86666667,8.4 L0,8.4 L0,7.46666667 L1.86666667,7.46666667 L1.86666667,5.6 L0,5.6 L0,4.66666667 L1.86666667,4.66666667 L1.86666667,2.8 L0,2.8 L0,1.86666667 L1.86666667,1.86666667 L1.86666667,0 L2.8,0 L2.8,1.86666667 L4.66666667,1.86666667 L4.66666667,0 L5.6,0 L5.6,1.86666667 Z M5.6,5.6 L5.6,7.46666667 L7.46666667,7.46666667 L7.46666667,5.6 L5.6,5.6 Z M4.66666667,5.6 L2.8,5.6 L2.8,7.46666667 L4.66666667,7.46666667 L4.66666667,5.6 Z M5.6,8.4 L5.6,10.2666667 L7.46666667,10.2666667 L7.46666667,8.4 L5.6,8.4 Z M4.66666667,8.4 L2.8,8.4 L2.8,10.2666667 L4.66666667,10.2666667 L4.66666667,8.4 Z M8.4,4.66666667 L10.2666667,4.66666667 L10.2666667,2.8 L8.4,2.8 L8.4,4.66666667 Z M8.4,5.6 L8.4,7.46666667 L10.2666667,7.46666667 L10.2666667,5.6 L8.4,5.6 Z M8.4,8.4 L8.4,10.2666667 L10.2666667,10.2666667 L10.2666667,8.4 L8.4,8.4 Z" id="Combined-Shape" fill-opacity="0.2"></path>
                                        <path d="M13.0666667,0 L14,0 L14,13.0666667 L13.0666667,13.0666667 L13.0666667,0 Z M0,13.0666667 L14,13.0666667 L14,14 L0,14 L0,13.0666667 Z" id="Combined-Shape" fill-opacity="0.6"></path>
                                    </g>
                                </g>
                                <g id="Grid-Small" transform="translate(56.000000, 14.000000)">
                                    <g id="Group-2">
                                        <path d="M5.6,4.66666667 L7.46666667,4.66666667 L7.46666667,2.8 L5.6,2.8 L5.6,4.66666667 Z M4.66666667,4.66666667 L4.66666667,2.8 L2.8,2.8 L2.8,4.66666667 L4.66666667,4.66666667 Z M5.6,1.86666667 L7.46666667,1.86666667 L7.46666667,0 L8.4,0 L8.4,1.86666667 L10.2666667,1.86666667 L10.2666667,0 L11.2,0 L11.2,1.86666667 L13.0666667,1.86666667 L13.0666667,2.8 L11.2,2.8 L11.2,4.66666667 L13.0666667,4.66666667 L13.0666667,5.6 L11.2,5.6 L11.2,7.46666667 L13.0666667,7.46666667 L13.0666667,8.4 L11.2,8.4 L11.2,10.2666667 L13.0666667,10.2666667 L13.0666667,11.2 L11.2,11.2 L11.2,13.0666667 L10.2666667,13.0666667 L10.2666667,11.2 L8.4,11.2 L8.4,13.0666667 L7.46666667,13.0666667 L7.46666667,11.2 L5.6,11.2 L5.6,13.0666667 L4.66666667,13.0666667 L4.66666667,11.2 L2.8,11.2 L2.8,13.0666667 L1.86666667,13.0666667 L1.86666667,11.2 L0,11.2 L0,10.2666667 L1.86666667,10.2666667 L1.86666667,8.4 L0,8.4 L0,7.46666667 L1.86666667,7.46666667 L1.86666667,5.6 L0,5.6 L0,4.66666667 L1.86666667,4.66666667 L1.86666667,2.8 L0,2.8 L0,1.86666667 L1.86666667,1.86666667 L1.86666667,0 L2.8,0 L2.8,1.86666667 L4.66666667,1.86666667 L4.66666667,0 L5.6,0 L5.6,1.86666667 Z M5.6,5.6 L5.6,7.46666667 L7.46666667,7.46666667 L7.46666667,5.6 L5.6,5.6 Z M4.66666667,5.6 L2.8,5.6 L2.8,7.46666667 L4.66666667,7.46666667 L4.66666667,5.6 Z M5.6,8.4 L5.6,10.2666667 L7.46666667,10.2666667 L7.46666667,8.4 L5.6,8.4 Z M4.66666667,8.4 L2.8,8.4 L2.8,10.2666667 L4.66666667,10.2666667 L4.66666667,8.4 Z M8.4,4.66666667 L10.2666667,4.66666667 L10.2666667,2.8 L8.4,2.8 L8.4,4.66666667 Z M8.4,5.6 L8.4,7.46666667 L10.2666667,7.46666667 L10.2666667,5.6 L8.4,5.6 Z M8.4,8.4 L8.4,10.2666667 L10.2666667,10.2666667 L10.2666667,8.4 L8.4,8.4 Z" id="Combined-Shape" fill-opacity="0.2"></path>
                                        <path d="M13.0666667,0 L14,0 L14,13.0666667 L13.0666667,13.0666667 L13.0666667,0 Z M0,13.0666667 L14,13.0666667 L14,14 L0,14 L0,13.0666667 Z" id="Combined-Shape" fill-opacity="0.6"></path>
                                    </g>
                                </g>
                                <g id="Grid-Small" transform="translate(0.000000, 28.000000)">
                                    <g id="Group-2">
                                        <path d="M5.6,4.66666667 L7.46666667,4.66666667 L7.46666667,2.8 L5.6,2.8 L5.6,4.66666667 Z M4.66666667,4.66666667 L4.66666667,2.8 L2.8,2.8 L2.8,4.66666667 L4.66666667,4.66666667 Z M5.6,1.86666667 L7.46666667,1.86666667 L7.46666667,0 L8.4,0 L8.4,1.86666667 L10.2666667,1.86666667 L10.2666667,0 L11.2,0 L11.2,1.86666667 L13.0666667,1.86666667 L13.0666667,2.8 L11.2,2.8 L11.2,4.66666667 L13.0666667,4.66666667 L13.0666667,5.6 L11.2,5.6 L11.2,7.46666667 L13.0666667,7.46666667 L13.0666667,8.4 L11.2,8.4 L11.2,10.2666667 L13.0666667,10.2666667 L13.0666667,11.2 L11.2,11.2 L11.2,13.0666667 L10.2666667,13.0666667 L10.2666667,11.2 L8.4,11.2 L8.4,13.0666667 L7.46666667,13.0666667 L7.46666667,11.2 L5.6,11.2 L5.6,13.0666667 L4.66666667,13.0666667 L4.66666667,11.2 L2.8,11.2 L2.8,13.0666667 L1.86666667,13.0666667 L1.86666667,11.2 L0,11.2 L0,10.2666667 L1.86666667,10.2666667 L1.86666667,8.4 L0,8.4 L0,7.46666667 L1.86666667,7.46666667 L1.86666667,5.6 L0,5.6 L0,4.66666667 L1.86666667,4.66666667 L1.86666667,2.8 L0,2.8 L0,1.86666667 L1.86666667,1.86666667 L1.86666667,0 L2.8,0 L2.8,1.86666667 L4.66666667,1.86666667 L4.66666667,0 L5.6,0 L5.6,1.86666667 Z M5.6,5.6 L5.6,7.46666667 L7.46666667,7.46666667 L7.46666667,5.6 L5.6,5.6 Z M4.66666667,5.6 L2.8,5.6 L2.8,7.46666667 L4.66666667,7.46666667 L4.66666667,5.6 Z M5.6,8.4 L5.6,10.2666667 L7.46666667,10.2666667 L7.46666667,8.4 L5.6,8.4 Z M4.66666667,8.4 L2.8,8.4 L2.8,10.2666667 L4.66666667,10.2666667 L4.66666667,8.4 Z M8.4,4.66666667 L10.2666667,4.66666667 L10.2666667,2.8 L8.4,2.8 L8.4,4.66666667 Z M8.4,5.6 L8.4,7.46666667 L10.2666667,7.46666667 L10.2666667,5.6 L8.4,5.6 Z M8.4,8.4 L8.4,10.2666667 L10.2666667,10.2666667 L10.2666667,8.4 L8.4,8.4 Z" id="Combined-Shape" fill-opacity="0.2"></path>
                                        <path d="M13.0666667,0 L14,0 L14,13.0666667 L13.0666667,13.0666667 L13.0666667,0 Z M0,13.0666667 L14,13.0666667 L14,14 L0,14 L0,13.0666667 Z" id="Combined-Shape" fill-opacity="0.6"></path>
                                    </g>
                                </g>
                                <g id="Grid-Small" transform="translate(14.000000, 28.000000)">
                                    <g id="Group-2">
                                        <path d="M5.6,4.66666667 L7.46666667,4.66666667 L7.46666667,2.8 L5.6,2.8 L5.6,4.66666667 Z M4.66666667,4.66666667 L4.66666667,2.8 L2.8,2.8 L2.8,4.66666667 L4.66666667,4.66666667 Z M5.6,1.86666667 L7.46666667,1.86666667 L7.46666667,0 L8.4,0 L8.4,1.86666667 L10.2666667,1.86666667 L10.2666667,0 L11.2,0 L11.2,1.86666667 L13.0666667,1.86666667 L13.0666667,2.8 L11.2,2.8 L11.2,4.66666667 L13.0666667,4.66666667 L13.0666667,5.6 L11.2,5.6 L11.2,7.46666667 L13.0666667,7.46666667 L13.0666667,8.4 L11.2,8.4 L11.2,10.2666667 L13.0666667,10.2666667 L13.0666667,11.2 L11.2,11.2 L11.2,13.0666667 L10.2666667,13.0666667 L10.2666667,11.2 L8.4,11.2 L8.4,13.0666667 L7.46666667,13.0666667 L7.46666667,11.2 L5.6,11.2 L5.6,13.0666667 L4.66666667,13.0666667 L4.66666667,11.2 L2.8,11.2 L2.8,13.0666667 L1.86666667,13.0666667 L1.86666667,11.2 L0,11.2 L0,10.2666667 L1.86666667,10.2666667 L1.86666667,8.4 L0,8.4 L0,7.46666667 L1.86666667,7.46666667 L1.86666667,5.6 L0,5.6 L0,4.66666667 L1.86666667,4.66666667 L1.86666667,2.8 L0,2.8 L0,1.86666667 L1.86666667,1.86666667 L1.86666667,0 L2.8,0 L2.8,1.86666667 L4.66666667,1.86666667 L4.66666667,0 L5.6,0 L5.6,1.86666667 Z M5.6,5.6 L5.6,7.46666667 L7.46666667,7.46666667 L7.46666667,5.6 L5.6,5.6 Z M4.66666667,5.6 L2.8,5.6 L2.8,7.46666667 L4.66666667,7.46666667 L4.66666667,5.6 Z M5.6,8.4 L5.6,10.2666667 L7.46666667,10.2666667 L7.46666667,8.4 L5.6,8.4 Z M4.66666667,8.4 L2.8,8.4 L2.8,10.2666667 L4.66666667,10.2666667 L4.66666667,8.4 Z M8.4,4.66666667 L10.2666667,4.66666667 L10.2666667,2.8 L8.4,2.8 L8.4,4.66666667 Z M8.4,5.6 L8.4,7.46666667 L10.2666667,7.46666667 L10.2666667,5.6 L8.4,5.6 Z M8.4,8.4 L8.4,10.2666667 L10.2666667,10.2666667 L10.2666667,8.4 L8.4,8.4 Z" id="Combined-Shape" fill-opacity="0.2"></path>
                                        <path d="M13.0666667,0 L14,0 L14,13.0666667 L13.0666667,13.0666667 L13.0666667,0 Z M0,13.0666667 L14,13.0666667 L14,14 L0,14 L0,13.0666667 Z" id="Combined-Shape" fill-opacity="0.6"></path>
                                    </g>
                                </g>
                                <g id="Grid-Small" transform="translate(28.000000, 28.000000)">
                                    <g id="Group-2">
                                        <path d="M5.6,4.66666667 L7.46666667,4.66666667 L7.46666667,2.8 L5.6,2.8 L5.6,4.66666667 Z M4.66666667,4.66666667 L4.66666667,2.8 L2.8,2.8 L2.8,4.66666667 L4.66666667,4.66666667 Z M5.6,1.86666667 L7.46666667,1.86666667 L7.46666667,0 L8.4,0 L8.4,1.86666667 L10.2666667,1.86666667 L10.2666667,0 L11.2,0 L11.2,1.86666667 L13.0666667,1.86666667 L13.0666667,2.8 L11.2,2.8 L11.2,4.66666667 L13.0666667,4.66666667 L13.0666667,5.6 L11.2,5.6 L11.2,7.46666667 L13.0666667,7.46666667 L13.0666667,8.4 L11.2,8.4 L11.2,10.2666667 L13.0666667,10.2666667 L13.0666667,11.2 L11.2,11.2 L11.2,13.0666667 L10.2666667,13.0666667 L10.2666667,11.2 L8.4,11.2 L8.4,13.0666667 L7.46666667,13.0666667 L7.46666667,11.2 L5.6,11.2 L5.6,13.0666667 L4.66666667,13.0666667 L4.66666667,11.2 L2.8,11.2 L2.8,13.0666667 L1.86666667,13.0666667 L1.86666667,11.2 L0,11.2 L0,10.2666667 L1.86666667,10.2666667 L1.86666667,8.4 L0,8.4 L0,7.46666667 L1.86666667,7.46666667 L1.86666667,5.6 L0,5.6 L0,4.66666667 L1.86666667,4.66666667 L1.86666667,2.8 L0,2.8 L0,1.86666667 L1.86666667,1.86666667 L1.86666667,0 L2.8,0 L2.8,1.86666667 L4.66666667,1.86666667 L4.66666667,0 L5.6,0 L5.6,1.86666667 Z M5.6,5.6 L5.6,7.46666667 L7.46666667,7.46666667 L7.46666667,5.6 L5.6,5.6 Z M4.66666667,5.6 L2.8,5.6 L2.8,7.46666667 L4.66666667,7.46666667 L4.66666667,5.6 Z M5.6,8.4 L5.6,10.2666667 L7.46666667,10.2666667 L7.46666667,8.4 L5.6,8.4 Z M4.66666667,8.4 L2.8,8.4 L2.8,10.2666667 L4.66666667,10.2666667 L4.66666667,8.4 Z M8.4,4.66666667 L10.2666667,4.66666667 L10.2666667,2.8 L8.4,2.8 L8.4,4.66666667 Z M8.4,5.6 L8.4,7.46666667 L10.2666667,7.46666667 L10.2666667,5.6 L8.4,5.6 Z M8.4,8.4 L8.4,10.2666667 L10.2666667,10.2666667 L10.2666667,8.4 L8.4,8.4 Z" id="Combined-Shape" fill-opacity="0.2"></path>
                                        <path d="M13.0666667,0 L14,0 L14,13.0666667 L13.0666667,13.0666667 L13.0666667,0 Z M0,13.0666667 L14,13.0666667 L14,14 L0,14 L0,13.0666667 Z" id="Combined-Shape" fill-opacity="0.6"></path>
                                    </g>
                                </g>
                                <g id="Grid-Small" transform="translate(42.000000, 28.000000)">
                                    <g id="Group-2">
                                        <path d="M5.6,4.66666667 L7.46666667,4.66666667 L7.46666667,2.8 L5.6,2.8 L5.6,4.66666667 Z M4.66666667,4.66666667 L4.66666667,2.8 L2.8,2.8 L2.8,4.66666667 L4.66666667,4.66666667 Z M5.6,1.86666667 L7.46666667,1.86666667 L7.46666667,0 L8.4,0 L8.4,1.86666667 L10.2666667,1.86666667 L10.2666667,0 L11.2,0 L11.2,1.86666667 L13.0666667,1.86666667 L13.0666667,2.8 L11.2,2.8 L11.2,4.66666667 L13.0666667,4.66666667 L13.0666667,5.6 L11.2,5.6 L11.2,7.46666667 L13.0666667,7.46666667 L13.0666667,8.4 L11.2,8.4 L11.2,10.2666667 L13.0666667,10.2666667 L13.0666667,11.2 L11.2,11.2 L11.2,13.0666667 L10.2666667,13.0666667 L10.2666667,11.2 L8.4,11.2 L8.4,13.0666667 L7.46666667,13.0666667 L7.46666667,11.2 L5.6,11.2 L5.6,13.0666667 L4.66666667,13.0666667 L4.66666667,11.2 L2.8,11.2 L2.8,13.0666667 L1.86666667,13.0666667 L1.86666667,11.2 L0,11.2 L0,10.2666667 L1.86666667,10.2666667 L1.86666667,8.4 L0,8.4 L0,7.46666667 L1.86666667,7.46666667 L1.86666667,5.6 L0,5.6 L0,4.66666667 L1.86666667,4.66666667 L1.86666667,2.8 L0,2.8 L0,1.86666667 L1.86666667,1.86666667 L1.86666667,0 L2.8,0 L2.8,1.86666667 L4.66666667,1.86666667 L4.66666667,0 L5.6,0 L5.6,1.86666667 Z M5.6,5.6 L5.6,7.46666667 L7.46666667,7.46666667 L7.46666667,5.6 L5.6,5.6 Z M4.66666667,5.6 L2.8,5.6 L2.8,7.46666667 L4.66666667,7.46666667 L4.66666667,5.6 Z M5.6,8.4 L5.6,10.2666667 L7.46666667,10.2666667 L7.46666667,8.4 L5.6,8.4 Z M4.66666667,8.4 L2.8,8.4 L2.8,10.2666667 L4.66666667,10.2666667 L4.66666667,8.4 Z M8.4,4.66666667 L10.2666667,4.66666667 L10.2666667,2.8 L8.4,2.8 L8.4,4.66666667 Z M8.4,5.6 L8.4,7.46666667 L10.2666667,7.46666667 L10.2666667,5.6 L8.4,5.6 Z M8.4,8.4 L8.4,10.2666667 L10.2666667,10.2666667 L10.2666667,8.4 L8.4,8.4 Z" id="Combined-Shape" fill-opacity="0.2"></path>
                                        <path d="M13.0666667,0 L14,0 L14,13.0666667 L13.0666667,13.0666667 L13.0666667,0 Z M0,13.0666667 L14,13.0666667 L14,14 L0,14 L0,13.0666667 Z" id="Combined-Shape" fill-opacity="0.6"></path>
                                    </g>
                                </g>
                                <g id="Grid-Small" transform="translate(56.000000, 28.000000)">
                                    <g id="Group-2">
                                        <path d="M5.6,4.66666667 L7.46666667,4.66666667 L7.46666667,2.8 L5.6,2.8 L5.6,4.66666667 Z M4.66666667,4.66666667 L4.66666667,2.8 L2.8,2.8 L2.8,4.66666667 L4.66666667,4.66666667 Z M5.6,1.86666667 L7.46666667,1.86666667 L7.46666667,0 L8.4,0 L8.4,1.86666667 L10.2666667,1.86666667 L10.2666667,0 L11.2,0 L11.2,1.86666667 L13.0666667,1.86666667 L13.0666667,2.8 L11.2,2.8 L11.2,4.66666667 L13.0666667,4.66666667 L13.0666667,5.6 L11.2,5.6 L11.2,7.46666667 L13.0666667,7.46666667 L13.0666667,8.4 L11.2,8.4 L11.2,10.2666667 L13.0666667,10.2666667 L13.0666667,11.2 L11.2,11.2 L11.2,13.0666667 L10.2666667,13.0666667 L10.2666667,11.2 L8.4,11.2 L8.4,13.0666667 L7.46666667,13.0666667 L7.46666667,11.2 L5.6,11.2 L5.6,13.0666667 L4.66666667,13.0666667 L4.66666667,11.2 L2.8,11.2 L2.8,13.0666667 L1.86666667,13.0666667 L1.86666667,11.2 L0,11.2 L0,10.2666667 L1.86666667,10.2666667 L1.86666667,8.4 L0,8.4 L0,7.46666667 L1.86666667,7.46666667 L1.86666667,5.6 L0,5.6 L0,4.66666667 L1.86666667,4.66666667 L1.86666667,2.8 L0,2.8 L0,1.86666667 L1.86666667,1.86666667 L1.86666667,0 L2.8,0 L2.8,1.86666667 L4.66666667,1.86666667 L4.66666667,0 L5.6,0 L5.6,1.86666667 Z M5.6,5.6 L5.6,7.46666667 L7.46666667,7.46666667 L7.46666667,5.6 L5.6,5.6 Z M4.66666667,5.6 L2.8,5.6 L2.8,7.46666667 L4.66666667,7.46666667 L4.66666667,5.6 Z M5.6,8.4 L5.6,10.2666667 L7.46666667,10.2666667 L7.46666667,8.4 L5.6,8.4 Z M4.66666667,8.4 L2.8,8.4 L2.8,10.2666667 L4.66666667,10.2666667 L4.66666667,8.4 Z M8.4,4.66666667 L10.2666667,4.66666667 L10.2666667,2.8 L8.4,2.8 L8.4,4.66666667 Z M8.4,5.6 L8.4,7.46666667 L10.2666667,7.46666667 L10.2666667,5.6 L8.4,5.6 Z M8.4,8.4 L8.4,10.2666667 L10.2666667,10.2666667 L10.2666667,8.4 L8.4,8.4 Z" id="Combined-Shape" fill-opacity="0.2"></path>
                                        <path d="M13.0666667,0 L14,0 L14,13.0666667 L13.0666667,13.0666667 L13.0666667,0 Z M0,13.0666667 L14,13.0666667 L14,14 L0,14 L0,13.0666667 Z" id="Combined-Shape" fill-opacity="0.6"></path>
                                    </g>
                                </g>
                            </g>
                        </g>
                        <!-- <g id="Group-12-Copy-4" transform="translate(83.000000, 0.000000)">
                            <rect id="Rectangle-3-Copy" fill="#FF0000" fill-rule="nonzero" x="0" y="0" width="1" height="70"></rect>
                        </g> -->
                        <g id="Group-12-Copy" transform="translate(0.000000, 70.000000)">
                            <g id="Group-9" transform="translate(7.000000, 21.000000) scale(-1, 1) rotate(-180.000000) translate(-7.000000, -21.000000) " fill-rule="nonzero">
                                <g id="Grid-Small">
                                    <g id="Group-2">
                                        <path d="M5.6,4.66666667 L7.46666667,4.66666667 L7.46666667,2.8 L5.6,2.8 L5.6,4.66666667 Z M4.66666667,4.66666667 L4.66666667,2.8 L2.8,2.8 L2.8,4.66666667 L4.66666667,4.66666667 Z M5.6,1.86666667 L7.46666667,1.86666667 L7.46666667,0 L8.4,0 L8.4,1.86666667 L10.2666667,1.86666667 L10.2666667,0 L11.2,0 L11.2,1.86666667 L13.0666667,1.86666667 L13.0666667,2.8 L11.2,2.8 L11.2,4.66666667 L13.0666667,4.66666667 L13.0666667,5.6 L11.2,5.6 L11.2,7.46666667 L13.0666667,7.46666667 L13.0666667,8.4 L11.2,8.4 L11.2,10.2666667 L13.0666667,10.2666667 L13.0666667,11.2 L11.2,11.2 L11.2,13.0666667 L10.2666667,13.0666667 L10.2666667,11.2 L8.4,11.2 L8.4,13.0666667 L7.46666667,13.0666667 L7.46666667,11.2 L5.6,11.2 L5.6,13.0666667 L4.66666667,13.0666667 L4.66666667,11.2 L2.8,11.2 L2.8,13.0666667 L1.86666667,13.0666667 L1.86666667,11.2 L0,11.2 L0,10.2666667 L1.86666667,10.2666667 L1.86666667,8.4 L0,8.4 L0,7.46666667 L1.86666667,7.46666667 L1.86666667,5.6 L0,5.6 L0,4.66666667 L1.86666667,4.66666667 L1.86666667,2.8 L0,2.8 L0,1.86666667 L1.86666667,1.86666667 L1.86666667,0 L2.8,0 L2.8,1.86666667 L4.66666667,1.86666667 L4.66666667,0 L5.6,0 L5.6,1.86666667 Z M5.6,5.6 L5.6,7.46666667 L7.46666667,7.46666667 L7.46666667,5.6 L5.6,5.6 Z M4.66666667,5.6 L2.8,5.6 L2.8,7.46666667 L4.66666667,7.46666667 L4.66666667,5.6 Z M5.6,8.4 L5.6,10.2666667 L7.46666667,10.2666667 L7.46666667,8.4 L5.6,8.4 Z M4.66666667,8.4 L2.8,8.4 L2.8,10.2666667 L4.66666667,10.2666667 L4.66666667,8.4 Z M8.4,4.66666667 L10.2666667,4.66666667 L10.2666667,2.8 L8.4,2.8 L8.4,4.66666667 Z M8.4,5.6 L8.4,7.46666667 L10.2666667,7.46666667 L10.2666667,5.6 L8.4,5.6 Z M8.4,8.4 L8.4,10.2666667 L10.2666667,10.2666667 L10.2666667,8.4 L8.4,8.4 Z" id="Combined-Shape" fill-opacity="0.2" fill="#FF0000"></path>
                                        <path d="M13.0666667,0 L14,0 L14,13.0666667 L13.0666667,13.0666667 L13.0666667,0 Z M0,13.0666667 L14,13.0666667 L14,14 L0,14 L0,13.0666667 Z" id="Combined-Shape" fill-opacity="0.6" fill="#FF0000"></path>
                                    </g>
                                </g>
                                <g id="Grid-Small" transform="translate(0.000000, 14.000000)">
                                    <g id="Group-2">
                                        <path d="M5.6,4.66666667 L7.46666667,4.66666667 L7.46666667,2.8 L5.6,2.8 L5.6,4.66666667 Z M4.66666667,4.66666667 L4.66666667,2.8 L2.8,2.8 L2.8,4.66666667 L4.66666667,4.66666667 Z M5.6,1.86666667 L7.46666667,1.86666667 L7.46666667,0 L8.4,0 L8.4,1.86666667 L10.2666667,1.86666667 L10.2666667,0 L11.2,0 L11.2,1.86666667 L13.0666667,1.86666667 L13.0666667,2.8 L11.2,2.8 L11.2,4.66666667 L13.0666667,4.66666667 L13.0666667,5.6 L11.2,5.6 L11.2,7.46666667 L13.0666667,7.46666667 L13.0666667,8.4 L11.2,8.4 L11.2,10.2666667 L13.0666667,10.2666667 L13.0666667,11.2 L11.2,11.2 L11.2,13.0666667 L10.2666667,13.0666667 L10.2666667,11.2 L8.4,11.2 L8.4,13.0666667 L7.46666667,13.0666667 L7.46666667,11.2 L5.6,11.2 L5.6,13.0666667 L4.66666667,13.0666667 L4.66666667,11.2 L2.8,11.2 L2.8,13.0666667 L1.86666667,13.0666667 L1.86666667,11.2 L0,11.2 L0,10.2666667 L1.86666667,10.2666667 L1.86666667,8.4 L0,8.4 L0,7.46666667 L1.86666667,7.46666667 L1.86666667,5.6 L0,5.6 L0,4.66666667 L1.86666667,4.66666667 L1.86666667,2.8 L0,2.8 L0,1.86666667 L1.86666667,1.86666667 L1.86666667,0 L2.8,0 L2.8,1.86666667 L4.66666667,1.86666667 L4.66666667,0 L5.6,0 L5.6,1.86666667 Z M5.6,5.6 L5.6,7.46666667 L7.46666667,7.46666667 L7.46666667,5.6 L5.6,5.6 Z M4.66666667,5.6 L2.8,5.6 L2.8,7.46666667 L4.66666667,7.46666667 L4.66666667,5.6 Z M5.6,8.4 L5.6,10.2666667 L7.46666667,10.2666667 L7.46666667,8.4 L5.6,8.4 Z M4.66666667,8.4 L2.8,8.4 L2.8,10.2666667 L4.66666667,10.2666667 L4.66666667,8.4 Z M8.4,4.66666667 L10.2666667,4.66666667 L10.2666667,2.8 L8.4,2.8 L8.4,4.66666667 Z M8.4,5.6 L8.4,7.46666667 L10.2666667,7.46666667 L10.2666667,5.6 L8.4,5.6 Z M8.4,8.4 L8.4,10.2666667 L10.2666667,10.2666667 L10.2666667,8.4 L8.4,8.4 Z" id="Combined-Shape" fill-opacity="0.2" fill="#FF0000"></path>
                                        <path d="M13.0666667,0 L14,0 L14,13.0666667 L13.0666667,13.0666667 L13.0666667,0 Z M0,13.0666667 L14,13.0666667 L14,14 L0,14 L0,13.0666667 Z" id="Combined-Shape" fill-opacity="0.6" fill="#FF0000"></path>
                                    </g>
                                </g>
                                <g id="Grid-Small" transform="translate(0.000000, 28.000000)">
                                    <g id="Group-2">
                                        <path d="M5.6,4.66666667 L7.46666667,4.66666667 L7.46666667,2.8 L5.6,2.8 L5.6,4.66666667 Z M4.66666667,4.66666667 L4.66666667,2.8 L2.8,2.8 L2.8,4.66666667 L4.66666667,4.66666667 Z M5.6,1.86666667 L7.46666667,1.86666667 L7.46666667,0 L8.4,0 L8.4,1.86666667 L10.2666667,1.86666667 L10.2666667,0 L11.2,0 L11.2,1.86666667 L13.0666667,1.86666667 L13.0666667,2.8 L11.2,2.8 L11.2,4.66666667 L13.0666667,4.66666667 L13.0666667,5.6 L11.2,5.6 L11.2,7.46666667 L13.0666667,7.46666667 L13.0666667,8.4 L11.2,8.4 L11.2,10.2666667 L13.0666667,10.2666667 L13.0666667,11.2 L11.2,11.2 L11.2,13.0666667 L10.2666667,13.0666667 L10.2666667,11.2 L8.4,11.2 L8.4,13.0666667 L7.46666667,13.0666667 L7.46666667,11.2 L5.6,11.2 L5.6,13.0666667 L4.66666667,13.0666667 L4.66666667,11.2 L2.8,11.2 L2.8,13.0666667 L1.86666667,13.0666667 L1.86666667,11.2 L0,11.2 L0,10.2666667 L1.86666667,10.2666667 L1.86666667,8.4 L0,8.4 L0,7.46666667 L1.86666667,7.46666667 L1.86666667,5.6 L0,5.6 L0,4.66666667 L1.86666667,4.66666667 L1.86666667,2.8 L0,2.8 L0,1.86666667 L1.86666667,1.86666667 L1.86666667,0 L2.8,0 L2.8,1.86666667 L4.66666667,1.86666667 L4.66666667,0 L5.6,0 L5.6,1.86666667 Z M5.6,5.6 L5.6,7.46666667 L7.46666667,7.46666667 L7.46666667,5.6 L5.6,5.6 Z M4.66666667,5.6 L2.8,5.6 L2.8,7.46666667 L4.66666667,7.46666667 L4.66666667,5.6 Z M5.6,8.4 L5.6,10.2666667 L7.46666667,10.2666667 L7.46666667,8.4 L5.6,8.4 Z M4.66666667,8.4 L2.8,8.4 L2.8,10.2666667 L4.66666667,10.2666667 L4.66666667,8.4 Z M8.4,4.66666667 L10.2666667,4.66666667 L10.2666667,2.8 L8.4,2.8 L8.4,4.66666667 Z M8.4,5.6 L8.4,7.46666667 L10.2666667,7.46666667 L10.2666667,5.6 L8.4,5.6 Z M8.4,8.4 L8.4,10.2666667 L10.2666667,10.2666667 L10.2666667,8.4 L8.4,8.4 Z" id="Combined-Shape" fill-opacity="0.2" fill="#FF0000"></path>
                                        <path d="M13.0666667,0 L14,0 L14,13.0666667 L13.0666667,13.0666667 L13.0666667,0 Z M0,13.0666667 L14,13.0666667 L14,14 L0,14 L0,13.0666667 Z" id="Combined-Shape" fill-opacity="0.6" fill="#FF0000"></path>
                                    </g>
                                </g>
                            </g>
                        </g>
                        <g id="Group-12-Copy-3" transform="translate(13.000000, 70.000000)">
                            <g id="Group-9" transform="translate(36.000000, 21.000000) scale(-1, 1) rotate(-180.000000) translate(-36.000000, -21.000000) translate(1.000000, 0.000000)" fill-rule="nonzero">
                                <g id="Grid-Small">
                                    <g id="Group-2">
                                        <path d="M5.6,4.66666667 L7.46666667,4.66666667 L7.46666667,2.8 L5.6,2.8 L5.6,4.66666667 Z M4.66666667,4.66666667 L4.66666667,2.8 L2.8,2.8 L2.8,4.66666667 L4.66666667,4.66666667 Z M5.6,1.86666667 L7.46666667,1.86666667 L7.46666667,0 L8.4,0 L8.4,1.86666667 L10.2666667,1.86666667 L10.2666667,0 L11.2,0 L11.2,1.86666667 L13.0666667,1.86666667 L13.0666667,2.8 L11.2,2.8 L11.2,4.66666667 L13.0666667,4.66666667 L13.0666667,5.6 L11.2,5.6 L11.2,7.46666667 L13.0666667,7.46666667 L13.0666667,8.4 L11.2,8.4 L11.2,10.2666667 L13.0666667,10.2666667 L13.0666667,11.2 L11.2,11.2 L11.2,13.0666667 L10.2666667,13.0666667 L10.2666667,11.2 L8.4,11.2 L8.4,13.0666667 L7.46666667,13.0666667 L7.46666667,11.2 L5.6,11.2 L5.6,13.0666667 L4.66666667,13.0666667 L4.66666667,11.2 L2.8,11.2 L2.8,13.0666667 L1.86666667,13.0666667 L1.86666667,11.2 L0,11.2 L0,10.2666667 L1.86666667,10.2666667 L1.86666667,8.4 L0,8.4 L0,7.46666667 L1.86666667,7.46666667 L1.86666667,5.6 L0,5.6 L0,4.66666667 L1.86666667,4.66666667 L1.86666667,2.8 L0,2.8 L0,1.86666667 L1.86666667,1.86666667 L1.86666667,0 L2.8,0 L2.8,1.86666667 L4.66666667,1.86666667 L4.66666667,0 L5.6,0 L5.6,1.86666667 Z M5.6,5.6 L5.6,7.46666667 L7.46666667,7.46666667 L7.46666667,5.6 L5.6,5.6 Z M4.66666667,5.6 L2.8,5.6 L2.8,7.46666667 L4.66666667,7.46666667 L4.66666667,5.6 Z M5.6,8.4 L5.6,10.2666667 L7.46666667,10.2666667 L7.46666667,8.4 L5.6,8.4 Z M4.66666667,8.4 L2.8,8.4 L2.8,10.2666667 L4.66666667,10.2666667 L4.66666667,8.4 Z M8.4,4.66666667 L10.2666667,4.66666667 L10.2666667,2.8 L8.4,2.8 L8.4,4.66666667 Z M8.4,5.6 L8.4,7.46666667 L10.2666667,7.46666667 L10.2666667,5.6 L8.4,5.6 Z M8.4,8.4 L8.4,10.2666667 L10.2666667,10.2666667 L10.2666667,8.4 L8.4,8.4 Z" id="Combined-Shape" fill-opacity="0.2" fill="#FF0000"></path>
                                        <path d="M13.0666667,0 L14,0 L14,13.0666667 L13.0666667,13.0666667 L13.0666667,0 Z M0,13.0666667 L14,13.0666667 L14,14 L0,14 L0,13.0666667 Z" id="Combined-Shape" fill-opacity="0.6" fill="#FF0000"></path>
                                    </g>
                                </g>
                                <g id="Grid-Small" transform="translate(14.000000, 0.000000)">
                                    <g id="Group-2">
                                        <path d="M5.6,4.66666667 L7.46666667,4.66666667 L7.46666667,2.8 L5.6,2.8 L5.6,4.66666667 Z M4.66666667,4.66666667 L4.66666667,2.8 L2.8,2.8 L2.8,4.66666667 L4.66666667,4.66666667 Z M5.6,1.86666667 L7.46666667,1.86666667 L7.46666667,0 L8.4,0 L8.4,1.86666667 L10.2666667,1.86666667 L10.2666667,0 L11.2,0 L11.2,1.86666667 L13.0666667,1.86666667 L13.0666667,2.8 L11.2,2.8 L11.2,4.66666667 L13.0666667,4.66666667 L13.0666667,5.6 L11.2,5.6 L11.2,7.46666667 L13.0666667,7.46666667 L13.0666667,8.4 L11.2,8.4 L11.2,10.2666667 L13.0666667,10.2666667 L13.0666667,11.2 L11.2,11.2 L11.2,13.0666667 L10.2666667,13.0666667 L10.2666667,11.2 L8.4,11.2 L8.4,13.0666667 L7.46666667,13.0666667 L7.46666667,11.2 L5.6,11.2 L5.6,13.0666667 L4.66666667,13.0666667 L4.66666667,11.2 L2.8,11.2 L2.8,13.0666667 L1.86666667,13.0666667 L1.86666667,11.2 L0,11.2 L0,10.2666667 L1.86666667,10.2666667 L1.86666667,8.4 L0,8.4 L0,7.46666667 L1.86666667,7.46666667 L1.86666667,5.6 L0,5.6 L0,4.66666667 L1.86666667,4.66666667 L1.86666667,2.8 L0,2.8 L0,1.86666667 L1.86666667,1.86666667 L1.86666667,0 L2.8,0 L2.8,1.86666667 L4.66666667,1.86666667 L4.66666667,0 L5.6,0 L5.6,1.86666667 Z M5.6,5.6 L5.6,7.46666667 L7.46666667,7.46666667 L7.46666667,5.6 L5.6,5.6 Z M4.66666667,5.6 L2.8,5.6 L2.8,7.46666667 L4.66666667,7.46666667 L4.66666667,5.6 Z M5.6,8.4 L5.6,10.2666667 L7.46666667,10.2666667 L7.46666667,8.4 L5.6,8.4 Z M4.66666667,8.4 L2.8,8.4 L2.8,10.2666667 L4.66666667,10.2666667 L4.66666667,8.4 Z M8.4,4.66666667 L10.2666667,4.66666667 L10.2666667,2.8 L8.4,2.8 L8.4,4.66666667 Z M8.4,5.6 L8.4,7.46666667 L10.2666667,7.46666667 L10.2666667,5.6 L8.4,5.6 Z M8.4,8.4 L8.4,10.2666667 L10.2666667,10.2666667 L10.2666667,8.4 L8.4,8.4 Z" id="Combined-Shape" fill-opacity="0.2" fill="#FF0000"></path>
                                        <path d="M13.0666667,0 L14,0 L14,13.0666667 L13.0666667,13.0666667 L13.0666667,0 Z M0,13.0666667 L14,13.0666667 L14,14 L0,14 L0,13.0666667 Z" id="Combined-Shape" fill-opacity="0.6" fill="#FF0000"></path>
                                    </g>
                                </g>
                                <g id="Grid-Small" transform="translate(28.000000, 0.000000)">
                                    <g id="Group-2">
                                        <path d="M5.6,4.66666667 L7.46666667,4.66666667 L7.46666667,2.8 L5.6,2.8 L5.6,4.66666667 Z M4.66666667,4.66666667 L4.66666667,2.8 L2.8,2.8 L2.8,4.66666667 L4.66666667,4.66666667 Z M5.6,1.86666667 L7.46666667,1.86666667 L7.46666667,0 L8.4,0 L8.4,1.86666667 L10.2666667,1.86666667 L10.2666667,0 L11.2,0 L11.2,1.86666667 L13.0666667,1.86666667 L13.0666667,2.8 L11.2,2.8 L11.2,4.66666667 L13.0666667,4.66666667 L13.0666667,5.6 L11.2,5.6 L11.2,7.46666667 L13.0666667,7.46666667 L13.0666667,8.4 L11.2,8.4 L11.2,10.2666667 L13.0666667,10.2666667 L13.0666667,11.2 L11.2,11.2 L11.2,13.0666667 L10.2666667,13.0666667 L10.2666667,11.2 L8.4,11.2 L8.4,13.0666667 L7.46666667,13.0666667 L7.46666667,11.2 L5.6,11.2 L5.6,13.0666667 L4.66666667,13.0666667 L4.66666667,11.2 L2.8,11.2 L2.8,13.0666667 L1.86666667,13.0666667 L1.86666667,11.2 L0,11.2 L0,10.2666667 L1.86666667,10.2666667 L1.86666667,8.4 L0,8.4 L0,7.46666667 L1.86666667,7.46666667 L1.86666667,5.6 L0,5.6 L0,4.66666667 L1.86666667,4.66666667 L1.86666667,2.8 L0,2.8 L0,1.86666667 L1.86666667,1.86666667 L1.86666667,0 L2.8,0 L2.8,1.86666667 L4.66666667,1.86666667 L4.66666667,0 L5.6,0 L5.6,1.86666667 Z M5.6,5.6 L5.6,7.46666667 L7.46666667,7.46666667 L7.46666667,5.6 L5.6,5.6 Z M4.66666667,5.6 L2.8,5.6 L2.8,7.46666667 L4.66666667,7.46666667 L4.66666667,5.6 Z M5.6,8.4 L5.6,10.2666667 L7.46666667,10.2666667 L7.46666667,8.4 L5.6,8.4 Z M4.66666667,8.4 L2.8,8.4 L2.8,10.2666667 L4.66666667,10.2666667 L4.66666667,8.4 Z M8.4,4.66666667 L10.2666667,4.66666667 L10.2666667,2.8 L8.4,2.8 L8.4,4.66666667 Z M8.4,5.6 L8.4,7.46666667 L10.2666667,7.46666667 L10.2666667,5.6 L8.4,5.6 Z M8.4,8.4 L8.4,10.2666667 L10.2666667,10.2666667 L10.2666667,8.4 L8.4,8.4 Z" id="Combined-Shape" fill-opacity="0.2" fill="#FF0000"></path>
                                        <path d="M13.0666667,0 L14,0 L14,13.0666667 L13.0666667,13.0666667 L13.0666667,0 Z M0,13.0666667 L14,13.0666667 L14,14 L0,14 L0,13.0666667 Z" id="Combined-Shape" fill-opacity="0.6" fill="#FF0000"></path>
                                    </g>
                                </g>
                                <g id="Grid-Small" transform="translate(42.000000, 0.000000)">
                                    <g id="Group-2">
                                        <path d="M5.6,4.66666667 L7.46666667,4.66666667 L7.46666667,2.8 L5.6,2.8 L5.6,4.66666667 Z M4.66666667,4.66666667 L4.66666667,2.8 L2.8,2.8 L2.8,4.66666667 L4.66666667,4.66666667 Z M5.6,1.86666667 L7.46666667,1.86666667 L7.46666667,0 L8.4,0 L8.4,1.86666667 L10.2666667,1.86666667 L10.2666667,0 L11.2,0 L11.2,1.86666667 L13.0666667,1.86666667 L13.0666667,2.8 L11.2,2.8 L11.2,4.66666667 L13.0666667,4.66666667 L13.0666667,5.6 L11.2,5.6 L11.2,7.46666667 L13.0666667,7.46666667 L13.0666667,8.4 L11.2,8.4 L11.2,10.2666667 L13.0666667,10.2666667 L13.0666667,11.2 L11.2,11.2 L11.2,13.0666667 L10.2666667,13.0666667 L10.2666667,11.2 L8.4,11.2 L8.4,13.0666667 L7.46666667,13.0666667 L7.46666667,11.2 L5.6,11.2 L5.6,13.0666667 L4.66666667,13.0666667 L4.66666667,11.2 L2.8,11.2 L2.8,13.0666667 L1.86666667,13.0666667 L1.86666667,11.2 L0,11.2 L0,10.2666667 L1.86666667,10.2666667 L1.86666667,8.4 L0,8.4 L0,7.46666667 L1.86666667,7.46666667 L1.86666667,5.6 L0,5.6 L0,4.66666667 L1.86666667,4.66666667 L1.86666667,2.8 L0,2.8 L0,1.86666667 L1.86666667,1.86666667 L1.86666667,0 L2.8,0 L2.8,1.86666667 L4.66666667,1.86666667 L4.66666667,0 L5.6,0 L5.6,1.86666667 Z M5.6,5.6 L5.6,7.46666667 L7.46666667,7.46666667 L7.46666667,5.6 L5.6,5.6 Z M4.66666667,5.6 L2.8,5.6 L2.8,7.46666667 L4.66666667,7.46666667 L4.66666667,5.6 Z M5.6,8.4 L5.6,10.2666667 L7.46666667,10.2666667 L7.46666667,8.4 L5.6,8.4 Z M4.66666667,8.4 L2.8,8.4 L2.8,10.2666667 L4.66666667,10.2666667 L4.66666667,8.4 Z M8.4,4.66666667 L10.2666667,4.66666667 L10.2666667,2.8 L8.4,2.8 L8.4,4.66666667 Z M8.4,5.6 L8.4,7.46666667 L10.2666667,7.46666667 L10.2666667,5.6 L8.4,5.6 Z M8.4,8.4 L8.4,10.2666667 L10.2666667,10.2666667 L10.2666667,8.4 L8.4,8.4 Z" id="Combined-Shape" fill-opacity="0.2" fill="#FF0000"></path>
                                        <path d="M13.0666667,0 L14,0 L14,13.0666667 L13.0666667,13.0666667 L13.0666667,0 Z M0,13.0666667 L14,13.0666667 L14,14 L0,14 L0,13.0666667 Z" id="Combined-Shape" fill-opacity="0.6" fill="#FF0000"></path>
                                    </g>
                                </g>
                                <g id="Grid-Small" transform="translate(56.000000, 0.000000)" fill="#FF0000">
                                    <g id="Group-2">
                                        <path d="M5.6,4.66666667 L7.46666667,4.66666667 L7.46666667,2.8 L5.6,2.8 L5.6,4.66666667 Z M4.66666667,4.66666667 L4.66666667,2.8 L2.8,2.8 L2.8,4.66666667 L4.66666667,4.66666667 Z M5.6,1.86666667 L7.46666667,1.86666667 L7.46666667,0 L8.4,0 L8.4,1.86666667 L10.2666667,1.86666667 L10.2666667,0 L11.2,0 L11.2,1.86666667 L13.0666667,1.86666667 L13.0666667,2.8 L11.2,2.8 L11.2,4.66666667 L13.0666667,4.66666667 L13.0666667,5.6 L11.2,5.6 L11.2,7.46666667 L13.0666667,7.46666667 L13.0666667,8.4 L11.2,8.4 L11.2,10.2666667 L13.0666667,10.2666667 L13.0666667,11.2 L11.2,11.2 L11.2,13.0666667 L10.2666667,13.0666667 L10.2666667,11.2 L8.4,11.2 L8.4,13.0666667 L7.46666667,13.0666667 L7.46666667,11.2 L5.6,11.2 L5.6,13.0666667 L4.66666667,13.0666667 L4.66666667,11.2 L2.8,11.2 L2.8,13.0666667 L1.86666667,13.0666667 L1.86666667,11.2 L0,11.2 L0,10.2666667 L1.86666667,10.2666667 L1.86666667,8.4 L0,8.4 L0,7.46666667 L1.86666667,7.46666667 L1.86666667,5.6 L0,5.6 L0,4.66666667 L1.86666667,4.66666667 L1.86666667,2.8 L0,2.8 L0,1.86666667 L1.86666667,1.86666667 L1.86666667,0 L2.8,0 L2.8,1.86666667 L4.66666667,1.86666667 L4.66666667,0 L5.6,0 L5.6,1.86666667 Z M5.6,5.6 L5.6,7.46666667 L7.46666667,7.46666667 L7.46666667,5.6 L5.6,5.6 Z M4.66666667,5.6 L2.8,5.6 L2.8,7.46666667 L4.66666667,7.46666667 L4.66666667,5.6 Z M5.6,8.4 L5.6,10.2666667 L7.46666667,10.2666667 L7.46666667,8.4 L5.6,8.4 Z M4.66666667,8.4 L2.8,8.4 L2.8,10.2666667 L4.66666667,10.2666667 L4.66666667,8.4 Z M8.4,4.66666667 L10.2666667,4.66666667 L10.2666667,2.8 L8.4,2.8 L8.4,4.66666667 Z M8.4,5.6 L8.4,7.46666667 L10.2666667,7.46666667 L10.2666667,5.6 L8.4,5.6 Z M8.4,8.4 L8.4,10.2666667 L10.2666667,10.2666667 L10.2666667,8.4 L8.4,8.4 Z" id="Combined-Shape" fill-opacity="0.2"></path>
                                        <path d="M13.0666667,0 L14,0 L14,13.0666667 L13.0666667,13.0666667 L13.0666667,0 Z M0,13.0666667 L14,13.0666667 L14,14 L0,14 L0,13.0666667 Z" id="Combined-Shape" fill-opacity="0.6"></path>
                                    </g>
                                </g>
                                <g id="Grid-Small" transform="translate(0.000000, 14.000000)" fill="#FF0000">
                                    <g id="Group-2">
                                        <path d="M5.6,4.66666667 L7.46666667,4.66666667 L7.46666667,2.8 L5.6,2.8 L5.6,4.66666667 Z M4.66666667,4.66666667 L4.66666667,2.8 L2.8,2.8 L2.8,4.66666667 L4.66666667,4.66666667 Z M5.6,1.86666667 L7.46666667,1.86666667 L7.46666667,0 L8.4,0 L8.4,1.86666667 L10.2666667,1.86666667 L10.2666667,0 L11.2,0 L11.2,1.86666667 L13.0666667,1.86666667 L13.0666667,2.8 L11.2,2.8 L11.2,4.66666667 L13.0666667,4.66666667 L13.0666667,5.6 L11.2,5.6 L11.2,7.46666667 L13.0666667,7.46666667 L13.0666667,8.4 L11.2,8.4 L11.2,10.2666667 L13.0666667,10.2666667 L13.0666667,11.2 L11.2,11.2 L11.2,13.0666667 L10.2666667,13.0666667 L10.2666667,11.2 L8.4,11.2 L8.4,13.0666667 L7.46666667,13.0666667 L7.46666667,11.2 L5.6,11.2 L5.6,13.0666667 L4.66666667,13.0666667 L4.66666667,11.2 L2.8,11.2 L2.8,13.0666667 L1.86666667,13.0666667 L1.86666667,11.2 L0,11.2 L0,10.2666667 L1.86666667,10.2666667 L1.86666667,8.4 L0,8.4 L0,7.46666667 L1.86666667,7.46666667 L1.86666667,5.6 L0,5.6 L0,4.66666667 L1.86666667,4.66666667 L1.86666667,2.8 L0,2.8 L0,1.86666667 L1.86666667,1.86666667 L1.86666667,0 L2.8,0 L2.8,1.86666667 L4.66666667,1.86666667 L4.66666667,0 L5.6,0 L5.6,1.86666667 Z M5.6,5.6 L5.6,7.46666667 L7.46666667,7.46666667 L7.46666667,5.6 L5.6,5.6 Z M4.66666667,5.6 L2.8,5.6 L2.8,7.46666667 L4.66666667,7.46666667 L4.66666667,5.6 Z M5.6,8.4 L5.6,10.2666667 L7.46666667,10.2666667 L7.46666667,8.4 L5.6,8.4 Z M4.66666667,8.4 L2.8,8.4 L2.8,10.2666667 L4.66666667,10.2666667 L4.66666667,8.4 Z M8.4,4.66666667 L10.2666667,4.66666667 L10.2666667,2.8 L8.4,2.8 L8.4,4.66666667 Z M8.4,5.6 L8.4,7.46666667 L10.2666667,7.46666667 L10.2666667,5.6 L8.4,5.6 Z M8.4,8.4 L8.4,10.2666667 L10.2666667,10.2666667 L10.2666667,8.4 L8.4,8.4 Z" id="Combined-Shape" fill-opacity="0.2"></path>
                                        <path d="M13.0666667,0 L14,0 L14,13.0666667 L13.0666667,13.0666667 L13.0666667,0 Z M0,13.0666667 L14,13.0666667 L14,14 L0,14 L0,13.0666667 Z" id="Combined-Shape" fill-opacity="0.6"></path>
                                    </g>
                                </g>
                                <g id="Grid-Small" transform="translate(14.000000, 14.000000)" fill="#FF0000">
                                    <g id="Group-2">
                                        <path d="M5.6,4.66666667 L7.46666667,4.66666667 L7.46666667,2.8 L5.6,2.8 L5.6,4.66666667 Z M4.66666667,4.66666667 L4.66666667,2.8 L2.8,2.8 L2.8,4.66666667 L4.66666667,4.66666667 Z M5.6,1.86666667 L7.46666667,1.86666667 L7.46666667,0 L8.4,0 L8.4,1.86666667 L10.2666667,1.86666667 L10.2666667,0 L11.2,0 L11.2,1.86666667 L13.0666667,1.86666667 L13.0666667,2.8 L11.2,2.8 L11.2,4.66666667 L13.0666667,4.66666667 L13.0666667,5.6 L11.2,5.6 L11.2,7.46666667 L13.0666667,7.46666667 L13.0666667,8.4 L11.2,8.4 L11.2,10.2666667 L13.0666667,10.2666667 L13.0666667,11.2 L11.2,11.2 L11.2,13.0666667 L10.2666667,13.0666667 L10.2666667,11.2 L8.4,11.2 L8.4,13.0666667 L7.46666667,13.0666667 L7.46666667,11.2 L5.6,11.2 L5.6,13.0666667 L4.66666667,13.0666667 L4.66666667,11.2 L2.8,11.2 L2.8,13.0666667 L1.86666667,13.0666667 L1.86666667,11.2 L0,11.2 L0,10.2666667 L1.86666667,10.2666667 L1.86666667,8.4 L0,8.4 L0,7.46666667 L1.86666667,7.46666667 L1.86666667,5.6 L0,5.6 L0,4.66666667 L1.86666667,4.66666667 L1.86666667,2.8 L0,2.8 L0,1.86666667 L1.86666667,1.86666667 L1.86666667,0 L2.8,0 L2.8,1.86666667 L4.66666667,1.86666667 L4.66666667,0 L5.6,0 L5.6,1.86666667 Z M5.6,5.6 L5.6,7.46666667 L7.46666667,7.46666667 L7.46666667,5.6 L5.6,5.6 Z M4.66666667,5.6 L2.8,5.6 L2.8,7.46666667 L4.66666667,7.46666667 L4.66666667,5.6 Z M5.6,8.4 L5.6,10.2666667 L7.46666667,10.2666667 L7.46666667,8.4 L5.6,8.4 Z M4.66666667,8.4 L2.8,8.4 L2.8,10.2666667 L4.66666667,10.2666667 L4.66666667,8.4 Z M8.4,4.66666667 L10.2666667,4.66666667 L10.2666667,2.8 L8.4,2.8 L8.4,4.66666667 Z M8.4,5.6 L8.4,7.46666667 L10.2666667,7.46666667 L10.2666667,5.6 L8.4,5.6 Z M8.4,8.4 L8.4,10.2666667 L10.2666667,10.2666667 L10.2666667,8.4 L8.4,8.4 Z" id="Combined-Shape" fill-opacity="0.2"></path>
                                        <path d="M13.0666667,0 L14,0 L14,13.0666667 L13.0666667,13.0666667 L13.0666667,0 Z M0,13.0666667 L14,13.0666667 L14,14 L0,14 L0,13.0666667 Z" id="Combined-Shape" fill-opacity="0.6"></path>
                                    </g>
                                </g>
                                <g id="Grid-Small" transform="translate(28.000000, 14.000000)" fill="#FF0000">
                                    <g id="Group-2">
                                        <path d="M5.6,4.66666667 L7.46666667,4.66666667 L7.46666667,2.8 L5.6,2.8 L5.6,4.66666667 Z M4.66666667,4.66666667 L4.66666667,2.8 L2.8,2.8 L2.8,4.66666667 L4.66666667,4.66666667 Z M5.6,1.86666667 L7.46666667,1.86666667 L7.46666667,0 L8.4,0 L8.4,1.86666667 L10.2666667,1.86666667 L10.2666667,0 L11.2,0 L11.2,1.86666667 L13.0666667,1.86666667 L13.0666667,2.8 L11.2,2.8 L11.2,4.66666667 L13.0666667,4.66666667 L13.0666667,5.6 L11.2,5.6 L11.2,7.46666667 L13.0666667,7.46666667 L13.0666667,8.4 L11.2,8.4 L11.2,10.2666667 L13.0666667,10.2666667 L13.0666667,11.2 L11.2,11.2 L11.2,13.0666667 L10.2666667,13.0666667 L10.2666667,11.2 L8.4,11.2 L8.4,13.0666667 L7.46666667,13.0666667 L7.46666667,11.2 L5.6,11.2 L5.6,13.0666667 L4.66666667,13.0666667 L4.66666667,11.2 L2.8,11.2 L2.8,13.0666667 L1.86666667,13.0666667 L1.86666667,11.2 L0,11.2 L0,10.2666667 L1.86666667,10.2666667 L1.86666667,8.4 L0,8.4 L0,7.46666667 L1.86666667,7.46666667 L1.86666667,5.6 L0,5.6 L0,4.66666667 L1.86666667,4.66666667 L1.86666667,2.8 L0,2.8 L0,1.86666667 L1.86666667,1.86666667 L1.86666667,0 L2.8,0 L2.8,1.86666667 L4.66666667,1.86666667 L4.66666667,0 L5.6,0 L5.6,1.86666667 Z M5.6,5.6 L5.6,7.46666667 L7.46666667,7.46666667 L7.46666667,5.6 L5.6,5.6 Z M4.66666667,5.6 L2.8,5.6 L2.8,7.46666667 L4.66666667,7.46666667 L4.66666667,5.6 Z M5.6,8.4 L5.6,10.2666667 L7.46666667,10.2666667 L7.46666667,8.4 L5.6,8.4 Z M4.66666667,8.4 L2.8,8.4 L2.8,10.2666667 L4.66666667,10.2666667 L4.66666667,8.4 Z M8.4,4.66666667 L10.2666667,4.66666667 L10.2666667,2.8 L8.4,2.8 L8.4,4.66666667 Z M8.4,5.6 L8.4,7.46666667 L10.2666667,7.46666667 L10.2666667,5.6 L8.4,5.6 Z M8.4,8.4 L8.4,10.2666667 L10.2666667,10.2666667 L10.2666667,8.4 L8.4,8.4 Z" id="Combined-Shape" fill-opacity="0.2"></path>
                                        <path d="M13.0666667,0 L14,0 L14,13.0666667 L13.0666667,13.0666667 L13.0666667,0 Z M0,13.0666667 L14,13.0666667 L14,14 L0,14 L0,13.0666667 Z" id="Combined-Shape" fill-opacity="0.6"></path>
                                    </g>
                                </g>
                                <g id="Grid-Small" transform="translate(42.000000, 14.000000)" fill="#FF0000">
                                    <g id="Group-2">
                                        <path d="M5.6,4.66666667 L7.46666667,4.66666667 L7.46666667,2.8 L5.6,2.8 L5.6,4.66666667 Z M4.66666667,4.66666667 L4.66666667,2.8 L2.8,2.8 L2.8,4.66666667 L4.66666667,4.66666667 Z M5.6,1.86666667 L7.46666667,1.86666667 L7.46666667,0 L8.4,0 L8.4,1.86666667 L10.2666667,1.86666667 L10.2666667,0 L11.2,0 L11.2,1.86666667 L13.0666667,1.86666667 L13.0666667,2.8 L11.2,2.8 L11.2,4.66666667 L13.0666667,4.66666667 L13.0666667,5.6 L11.2,5.6 L11.2,7.46666667 L13.0666667,7.46666667 L13.0666667,8.4 L11.2,8.4 L11.2,10.2666667 L13.0666667,10.2666667 L13.0666667,11.2 L11.2,11.2 L11.2,13.0666667 L10.2666667,13.0666667 L10.2666667,11.2 L8.4,11.2 L8.4,13.0666667 L7.46666667,13.0666667 L7.46666667,11.2 L5.6,11.2 L5.6,13.0666667 L4.66666667,13.0666667 L4.66666667,11.2 L2.8,11.2 L2.8,13.0666667 L1.86666667,13.0666667 L1.86666667,11.2 L0,11.2 L0,10.2666667 L1.86666667,10.2666667 L1.86666667,8.4 L0,8.4 L0,7.46666667 L1.86666667,7.46666667 L1.86666667,5.6 L0,5.6 L0,4.66666667 L1.86666667,4.66666667 L1.86666667,2.8 L0,2.8 L0,1.86666667 L1.86666667,1.86666667 L1.86666667,0 L2.8,0 L2.8,1.86666667 L4.66666667,1.86666667 L4.66666667,0 L5.6,0 L5.6,1.86666667 Z M5.6,5.6 L5.6,7.46666667 L7.46666667,7.46666667 L7.46666667,5.6 L5.6,5.6 Z M4.66666667,5.6 L2.8,5.6 L2.8,7.46666667 L4.66666667,7.46666667 L4.66666667,5.6 Z M5.6,8.4 L5.6,10.2666667 L7.46666667,10.2666667 L7.46666667,8.4 L5.6,8.4 Z M4.66666667,8.4 L2.8,8.4 L2.8,10.2666667 L4.66666667,10.2666667 L4.66666667,8.4 Z M8.4,4.66666667 L10.2666667,4.66666667 L10.2666667,2.8 L8.4,2.8 L8.4,4.66666667 Z M8.4,5.6 L8.4,7.46666667 L10.2666667,7.46666667 L10.2666667,5.6 L8.4,5.6 Z M8.4,8.4 L8.4,10.2666667 L10.2666667,10.2666667 L10.2666667,8.4 L8.4,8.4 Z" id="Combined-Shape" fill-opacity="0.2"></path>
                                        <path d="M13.0666667,0 L14,0 L14,13.0666667 L13.0666667,13.0666667 L13.0666667,0 Z M0,13.0666667 L14,13.0666667 L14,14 L0,14 L0,13.0666667 Z" id="Combined-Shape" fill-opacity="0.6"></path>
                                    </g>
                                </g>
                                <g id="Grid-Small" transform="translate(56.000000, 14.000000)" fill="#FF0000">
                                    <g id="Group-2">
                                        <path d="M5.6,4.66666667 L7.46666667,4.66666667 L7.46666667,2.8 L5.6,2.8 L5.6,4.66666667 Z M4.66666667,4.66666667 L4.66666667,2.8 L2.8,2.8 L2.8,4.66666667 L4.66666667,4.66666667 Z M5.6,1.86666667 L7.46666667,1.86666667 L7.46666667,0 L8.4,0 L8.4,1.86666667 L10.2666667,1.86666667 L10.2666667,0 L11.2,0 L11.2,1.86666667 L13.0666667,1.86666667 L13.0666667,2.8 L11.2,2.8 L11.2,4.66666667 L13.0666667,4.66666667 L13.0666667,5.6 L11.2,5.6 L11.2,7.46666667 L13.0666667,7.46666667 L13.0666667,8.4 L11.2,8.4 L11.2,10.2666667 L13.0666667,10.2666667 L13.0666667,11.2 L11.2,11.2 L11.2,13.0666667 L10.2666667,13.0666667 L10.2666667,11.2 L8.4,11.2 L8.4,13.0666667 L7.46666667,13.0666667 L7.46666667,11.2 L5.6,11.2 L5.6,13.0666667 L4.66666667,13.0666667 L4.66666667,11.2 L2.8,11.2 L2.8,13.0666667 L1.86666667,13.0666667 L1.86666667,11.2 L0,11.2 L0,10.2666667 L1.86666667,10.2666667 L1.86666667,8.4 L0,8.4 L0,7.46666667 L1.86666667,7.46666667 L1.86666667,5.6 L0,5.6 L0,4.66666667 L1.86666667,4.66666667 L1.86666667,2.8 L0,2.8 L0,1.86666667 L1.86666667,1.86666667 L1.86666667,0 L2.8,0 L2.8,1.86666667 L4.66666667,1.86666667 L4.66666667,0 L5.6,0 L5.6,1.86666667 Z M5.6,5.6 L5.6,7.46666667 L7.46666667,7.46666667 L7.46666667,5.6 L5.6,5.6 Z M4.66666667,5.6 L2.8,5.6 L2.8,7.46666667 L4.66666667,7.46666667 L4.66666667,5.6 Z M5.6,8.4 L5.6,10.2666667 L7.46666667,10.2666667 L7.46666667,8.4 L5.6,8.4 Z M4.66666667,8.4 L2.8,8.4 L2.8,10.2666667 L4.66666667,10.2666667 L4.66666667,8.4 Z M8.4,4.66666667 L10.2666667,4.66666667 L10.2666667,2.8 L8.4,2.8 L8.4,4.66666667 Z M8.4,5.6 L8.4,7.46666667 L10.2666667,7.46666667 L10.2666667,5.6 L8.4,5.6 Z M8.4,8.4 L8.4,10.2666667 L10.2666667,10.2666667 L10.2666667,8.4 L8.4,8.4 Z" id="Combined-Shape" fill-opacity="0.2"></path>
                                        <path d="M13.0666667,0 L14,0 L14,13.0666667 L13.0666667,13.0666667 L13.0666667,0 Z M0,13.0666667 L14,13.0666667 L14,14 L0,14 L0,13.0666667 Z" id="Combined-Shape" fill-opacity="0.6"></path>
                                    </g>
                                </g>
                                <g id="Grid-Small" transform="translate(0.000000, 28.000000)" fill="#FF0000">
                                    <g id="Group-2">
                                        <path d="M5.6,4.66666667 L7.46666667,4.66666667 L7.46666667,2.8 L5.6,2.8 L5.6,4.66666667 Z M4.66666667,4.66666667 L4.66666667,2.8 L2.8,2.8 L2.8,4.66666667 L4.66666667,4.66666667 Z M5.6,1.86666667 L7.46666667,1.86666667 L7.46666667,0 L8.4,0 L8.4,1.86666667 L10.2666667,1.86666667 L10.2666667,0 L11.2,0 L11.2,1.86666667 L13.0666667,1.86666667 L13.0666667,2.8 L11.2,2.8 L11.2,4.66666667 L13.0666667,4.66666667 L13.0666667,5.6 L11.2,5.6 L11.2,7.46666667 L13.0666667,7.46666667 L13.0666667,8.4 L11.2,8.4 L11.2,10.2666667 L13.0666667,10.2666667 L13.0666667,11.2 L11.2,11.2 L11.2,13.0666667 L10.2666667,13.0666667 L10.2666667,11.2 L8.4,11.2 L8.4,13.0666667 L7.46666667,13.0666667 L7.46666667,11.2 L5.6,11.2 L5.6,13.0666667 L4.66666667,13.0666667 L4.66666667,11.2 L2.8,11.2 L2.8,13.0666667 L1.86666667,13.0666667 L1.86666667,11.2 L0,11.2 L0,10.2666667 L1.86666667,10.2666667 L1.86666667,8.4 L0,8.4 L0,7.46666667 L1.86666667,7.46666667 L1.86666667,5.6 L0,5.6 L0,4.66666667 L1.86666667,4.66666667 L1.86666667,2.8 L0,2.8 L0,1.86666667 L1.86666667,1.86666667 L1.86666667,0 L2.8,0 L2.8,1.86666667 L4.66666667,1.86666667 L4.66666667,0 L5.6,0 L5.6,1.86666667 Z M5.6,5.6 L5.6,7.46666667 L7.46666667,7.46666667 L7.46666667,5.6 L5.6,5.6 Z M4.66666667,5.6 L2.8,5.6 L2.8,7.46666667 L4.66666667,7.46666667 L4.66666667,5.6 Z M5.6,8.4 L5.6,10.2666667 L7.46666667,10.2666667 L7.46666667,8.4 L5.6,8.4 Z M4.66666667,8.4 L2.8,8.4 L2.8,10.2666667 L4.66666667,10.2666667 L4.66666667,8.4 Z M8.4,4.66666667 L10.2666667,4.66666667 L10.2666667,2.8 L8.4,2.8 L8.4,4.66666667 Z M8.4,5.6 L8.4,7.46666667 L10.2666667,7.46666667 L10.2666667,5.6 L8.4,5.6 Z M8.4,8.4 L8.4,10.2666667 L10.2666667,10.2666667 L10.2666667,8.4 L8.4,8.4 Z" id="Combined-Shape" fill-opacity="0.2"></path>
                                        <path d="M13.0666667,0 L14,0 L14,13.0666667 L13.0666667,13.0666667 L13.0666667,0 Z M0,13.0666667 L14,13.0666667 L14,14 L0,14 L0,13.0666667 Z" id="Combined-Shape" fill-opacity="0.6"></path>
                                    </g>
                                </g>
                                <g id="Grid-Small" transform="translate(14.000000, 28.000000)" fill="#FF0000">
                                    <g id="Group-2">
                                        <path d="M5.6,4.66666667 L7.46666667,4.66666667 L7.46666667,2.8 L5.6,2.8 L5.6,4.66666667 Z M4.66666667,4.66666667 L4.66666667,2.8 L2.8,2.8 L2.8,4.66666667 L4.66666667,4.66666667 Z M5.6,1.86666667 L7.46666667,1.86666667 L7.46666667,0 L8.4,0 L8.4,1.86666667 L10.2666667,1.86666667 L10.2666667,0 L11.2,0 L11.2,1.86666667 L13.0666667,1.86666667 L13.0666667,2.8 L11.2,2.8 L11.2,4.66666667 L13.0666667,4.66666667 L13.0666667,5.6 L11.2,5.6 L11.2,7.46666667 L13.0666667,7.46666667 L13.0666667,8.4 L11.2,8.4 L11.2,10.2666667 L13.0666667,10.2666667 L13.0666667,11.2 L11.2,11.2 L11.2,13.0666667 L10.2666667,13.0666667 L10.2666667,11.2 L8.4,11.2 L8.4,13.0666667 L7.46666667,13.0666667 L7.46666667,11.2 L5.6,11.2 L5.6,13.0666667 L4.66666667,13.0666667 L4.66666667,11.2 L2.8,11.2 L2.8,13.0666667 L1.86666667,13.0666667 L1.86666667,11.2 L0,11.2 L0,10.2666667 L1.86666667,10.2666667 L1.86666667,8.4 L0,8.4 L0,7.46666667 L1.86666667,7.46666667 L1.86666667,5.6 L0,5.6 L0,4.66666667 L1.86666667,4.66666667 L1.86666667,2.8 L0,2.8 L0,1.86666667 L1.86666667,1.86666667 L1.86666667,0 L2.8,0 L2.8,1.86666667 L4.66666667,1.86666667 L4.66666667,0 L5.6,0 L5.6,1.86666667 Z M5.6,5.6 L5.6,7.46666667 L7.46666667,7.46666667 L7.46666667,5.6 L5.6,5.6 Z M4.66666667,5.6 L2.8,5.6 L2.8,7.46666667 L4.66666667,7.46666667 L4.66666667,5.6 Z M5.6,8.4 L5.6,10.2666667 L7.46666667,10.2666667 L7.46666667,8.4 L5.6,8.4 Z M4.66666667,8.4 L2.8,8.4 L2.8,10.2666667 L4.66666667,10.2666667 L4.66666667,8.4 Z M8.4,4.66666667 L10.2666667,4.66666667 L10.2666667,2.8 L8.4,2.8 L8.4,4.66666667 Z M8.4,5.6 L8.4,7.46666667 L10.2666667,7.46666667 L10.2666667,5.6 L8.4,5.6 Z M8.4,8.4 L8.4,10.2666667 L10.2666667,10.2666667 L10.2666667,8.4 L8.4,8.4 Z" id="Combined-Shape" fill-opacity="0.2"></path>
                                        <path d="M13.0666667,0 L14,0 L14,13.0666667 L13.0666667,13.0666667 L13.0666667,0 Z M0,13.0666667 L14,13.0666667 L14,14 L0,14 L0,13.0666667 Z" id="Combined-Shape" fill-opacity="0.6"></path>
                                    </g>
                                </g>
                                <g id="Grid-Small" transform="translate(28.000000, 28.000000)" fill="#FF0000">
                                    <g id="Group-2">
                                        <path d="M5.6,4.66666667 L7.46666667,4.66666667 L7.46666667,2.8 L5.6,2.8 L5.6,4.66666667 Z M4.66666667,4.66666667 L4.66666667,2.8 L2.8,2.8 L2.8,4.66666667 L4.66666667,4.66666667 Z M5.6,1.86666667 L7.46666667,1.86666667 L7.46666667,0 L8.4,0 L8.4,1.86666667 L10.2666667,1.86666667 L10.2666667,0 L11.2,0 L11.2,1.86666667 L13.0666667,1.86666667 L13.0666667,2.8 L11.2,2.8 L11.2,4.66666667 L13.0666667,4.66666667 L13.0666667,5.6 L11.2,5.6 L11.2,7.46666667 L13.0666667,7.46666667 L13.0666667,8.4 L11.2,8.4 L11.2,10.2666667 L13.0666667,10.2666667 L13.0666667,11.2 L11.2,11.2 L11.2,13.0666667 L10.2666667,13.0666667 L10.2666667,11.2 L8.4,11.2 L8.4,13.0666667 L7.46666667,13.0666667 L7.46666667,11.2 L5.6,11.2 L5.6,13.0666667 L4.66666667,13.0666667 L4.66666667,11.2 L2.8,11.2 L2.8,13.0666667 L1.86666667,13.0666667 L1.86666667,11.2 L0,11.2 L0,10.2666667 L1.86666667,10.2666667 L1.86666667,8.4 L0,8.4 L0,7.46666667 L1.86666667,7.46666667 L1.86666667,5.6 L0,5.6 L0,4.66666667 L1.86666667,4.66666667 L1.86666667,2.8 L0,2.8 L0,1.86666667 L1.86666667,1.86666667 L1.86666667,0 L2.8,0 L2.8,1.86666667 L4.66666667,1.86666667 L4.66666667,0 L5.6,0 L5.6,1.86666667 Z M5.6,5.6 L5.6,7.46666667 L7.46666667,7.46666667 L7.46666667,5.6 L5.6,5.6 Z M4.66666667,5.6 L2.8,5.6 L2.8,7.46666667 L4.66666667,7.46666667 L4.66666667,5.6 Z M5.6,8.4 L5.6,10.2666667 L7.46666667,10.2666667 L7.46666667,8.4 L5.6,8.4 Z M4.66666667,8.4 L2.8,8.4 L2.8,10.2666667 L4.66666667,10.2666667 L4.66666667,8.4 Z M8.4,4.66666667 L10.2666667,4.66666667 L10.2666667,2.8 L8.4,2.8 L8.4,4.66666667 Z M8.4,5.6 L8.4,7.46666667 L10.2666667,7.46666667 L10.2666667,5.6 L8.4,5.6 Z M8.4,8.4 L8.4,10.2666667 L10.2666667,10.2666667 L10.2666667,8.4 L8.4,8.4 Z" id="Combined-Shape" fill-opacity="0.2"></path>
                                        <path d="M13.0666667,0 L14,0 L14,13.0666667 L13.0666667,13.0666667 L13.0666667,0 Z M0,13.0666667 L14,13.0666667 L14,14 L0,14 L0,13.0666667 Z" id="Combined-Shape" fill-opacity="0.6"></path>
                                    </g>
                                </g>
                                <g id="Grid-Small" transform="translate(42.000000, 28.000000)" fill="#FF0000">
                                    <g id="Group-2">
                                        <path d="M5.6,4.66666667 L7.46666667,4.66666667 L7.46666667,2.8 L5.6,2.8 L5.6,4.66666667 Z M4.66666667,4.66666667 L4.66666667,2.8 L2.8,2.8 L2.8,4.66666667 L4.66666667,4.66666667 Z M5.6,1.86666667 L7.46666667,1.86666667 L7.46666667,0 L8.4,0 L8.4,1.86666667 L10.2666667,1.86666667 L10.2666667,0 L11.2,0 L11.2,1.86666667 L13.0666667,1.86666667 L13.0666667,2.8 L11.2,2.8 L11.2,4.66666667 L13.0666667,4.66666667 L13.0666667,5.6 L11.2,5.6 L11.2,7.46666667 L13.0666667,7.46666667 L13.0666667,8.4 L11.2,8.4 L11.2,10.2666667 L13.0666667,10.2666667 L13.0666667,11.2 L11.2,11.2 L11.2,13.0666667 L10.2666667,13.0666667 L10.2666667,11.2 L8.4,11.2 L8.4,13.0666667 L7.46666667,13.0666667 L7.46666667,11.2 L5.6,11.2 L5.6,13.0666667 L4.66666667,13.0666667 L4.66666667,11.2 L2.8,11.2 L2.8,13.0666667 L1.86666667,13.0666667 L1.86666667,11.2 L0,11.2 L0,10.2666667 L1.86666667,10.2666667 L1.86666667,8.4 L0,8.4 L0,7.46666667 L1.86666667,7.46666667 L1.86666667,5.6 L0,5.6 L0,4.66666667 L1.86666667,4.66666667 L1.86666667,2.8 L0,2.8 L0,1.86666667 L1.86666667,1.86666667 L1.86666667,0 L2.8,0 L2.8,1.86666667 L4.66666667,1.86666667 L4.66666667,0 L5.6,0 L5.6,1.86666667 Z M5.6,5.6 L5.6,7.46666667 L7.46666667,7.46666667 L7.46666667,5.6 L5.6,5.6 Z M4.66666667,5.6 L2.8,5.6 L2.8,7.46666667 L4.66666667,7.46666667 L4.66666667,5.6 Z M5.6,8.4 L5.6,10.2666667 L7.46666667,10.2666667 L7.46666667,8.4 L5.6,8.4 Z M4.66666667,8.4 L2.8,8.4 L2.8,10.2666667 L4.66666667,10.2666667 L4.66666667,8.4 Z M8.4,4.66666667 L10.2666667,4.66666667 L10.2666667,2.8 L8.4,2.8 L8.4,4.66666667 Z M8.4,5.6 L8.4,7.46666667 L10.2666667,7.46666667 L10.2666667,5.6 L8.4,5.6 Z M8.4,8.4 L8.4,10.2666667 L10.2666667,10.2666667 L10.2666667,8.4 L8.4,8.4 Z" id="Combined-Shape" fill-opacity="0.2"></path>
                                        <path d="M13.0666667,0 L14,0 L14,13.0666667 L13.0666667,13.0666667 L13.0666667,0 Z M0,13.0666667 L14,13.0666667 L14,14 L0,14 L0,13.0666667 Z" id="Combined-Shape" fill-opacity="0.6"></path>
                                    </g>
                                </g>
                                <g id="Grid-Small" transform="translate(56.000000, 28.000000)" fill="#FF0000">
                                    <g id="Group-2">
                                        <path d="M5.6,4.66666667 L7.46666667,4.66666667 L7.46666667,2.8 L5.6,2.8 L5.6,4.66666667 Z M4.66666667,4.66666667 L4.66666667,2.8 L2.8,2.8 L2.8,4.66666667 L4.66666667,4.66666667 Z M5.6,1.86666667 L7.46666667,1.86666667 L7.46666667,0 L8.4,0 L8.4,1.86666667 L10.2666667,1.86666667 L10.2666667,0 L11.2,0 L11.2,1.86666667 L13.0666667,1.86666667 L13.0666667,2.8 L11.2,2.8 L11.2,4.66666667 L13.0666667,4.66666667 L13.0666667,5.6 L11.2,5.6 L11.2,7.46666667 L13.0666667,7.46666667 L13.0666667,8.4 L11.2,8.4 L11.2,10.2666667 L13.0666667,10.2666667 L13.0666667,11.2 L11.2,11.2 L11.2,13.0666667 L10.2666667,13.0666667 L10.2666667,11.2 L8.4,11.2 L8.4,13.0666667 L7.46666667,13.0666667 L7.46666667,11.2 L5.6,11.2 L5.6,13.0666667 L4.66666667,13.0666667 L4.66666667,11.2 L2.8,11.2 L2.8,13.0666667 L1.86666667,13.0666667 L1.86666667,11.2 L0,11.2 L0,10.2666667 L1.86666667,10.2666667 L1.86666667,8.4 L0,8.4 L0,7.46666667 L1.86666667,7.46666667 L1.86666667,5.6 L0,5.6 L0,4.66666667 L1.86666667,4.66666667 L1.86666667,2.8 L0,2.8 L0,1.86666667 L1.86666667,1.86666667 L1.86666667,0 L2.8,0 L2.8,1.86666667 L4.66666667,1.86666667 L4.66666667,0 L5.6,0 L5.6,1.86666667 Z M5.6,5.6 L5.6,7.46666667 L7.46666667,7.46666667 L7.46666667,5.6 L5.6,5.6 Z M4.66666667,5.6 L2.8,5.6 L2.8,7.46666667 L4.66666667,7.46666667 L4.66666667,5.6 Z M5.6,8.4 L5.6,10.2666667 L7.46666667,10.2666667 L7.46666667,8.4 L5.6,8.4 Z M4.66666667,8.4 L2.8,8.4 L2.8,10.2666667 L4.66666667,10.2666667 L4.66666667,8.4 Z M8.4,4.66666667 L10.2666667,4.66666667 L10.2666667,2.8 L8.4,2.8 L8.4,4.66666667 Z M8.4,5.6 L8.4,7.46666667 L10.2666667,7.46666667 L10.2666667,5.6 L8.4,5.6 Z M8.4,8.4 L8.4,10.2666667 L10.2666667,10.2666667 L10.2666667,8.4 L8.4,8.4 Z" id="Combined-Shape" fill-opacity="0.2"></path>
                                        <path d="M13.0666667,0 L14,0 L14,13.0666667 L13.0666667,13.0666667 L13.0666667,0 Z M0,13.0666667 L14,13.0666667 L14,14 L0,14 L0,13.0666667 Z" id="Combined-Shape" fill-opacity="0.6"></path>
                                    </g>
                                </g>
                            </g>
                        </g>
                        <!-- <g id="Group-12-Copy-5" transform="translate(83.000000, 70.000000)">
                            <rect id="Rectangle-3-Copy" fill="#FF0000" fill-rule="nonzero" x="0" y="0" width="1" height="70"></rect>
                        </g> -->
                    </g>
                </g>
            </g>
        </g>
    </g>
</svg>